  0
SECTION
  2
HEADER
  9
$ACADVER
  1
AC1018
  9
$ACADMAINTVER
 70
     0
  9
$DWGCODEPAGE
  3
ANSI_1252
  9
$LASTSAVEDBY
  1
Aaron Sturman
  9
$INSBASE
 10
0.0
 20
0.0
 30
0.0
  9
$EXTMIN
 10
15.39269465348264
 20
13.57135769225341
 30
0.0
  9
$EXTMAX
 10
598.2684080390856
 20
403.0258283356411
 30
0.0
  9
$LIMMIN
 10
0.0
 20
0.0
  9
$LIMMAX
 10
12.0
 20
9.0
  9
$ORTHOMODE
 70
     1
  9
$REGENMODE
 70
     1
  9
$FILLMODE
 70
     1
  9
$QTEXTMODE
 70
     0
  9
$MIRRTEXT
 70
     0
  9
$LTSCALE
 40
1.0
  9
$ATTMODE
 70
     1
  9
$TEXTSIZE
 40
5.444664823089227
  9
$TRACEWID
 40
0.05
  9
$TEXTSTYLE
  7
Standard
  9
$CLAYER
  8
0
  9
$CELTYPE
  6
ByLayer
  9
$CECOLOR
 62
   256
  9
$CELTSCALE
 40
1.0
  9
$DISPSILH
 70
     0
  9
$DIMSCALE
 40
1.0
  9
$DIMASZ
 40
0.18
  9
$DIMEXO
 40
0.0625
  9
$DIMDLI
 40
0.38
  9
$DIMRND
 40
0.0
  9
$DIMDLE
 40
0.0
  9
$DIMEXE
 40
0.18
  9
$DIMTP
 40
0.0
  9
$DIMTM
 40
0.0
  9
$DIMTXT
 40
0.18
  9
$DIMCEN
 40
0.09
  9
$DIMTSZ
 40
0.0
  9
$DIMTOL
 70
     0
  9
$DIMLIM
 70
     0
  9
$DIMTIH
 70
     1
  9
$DIMTOH
 70
     1
  9
$DIMSE1
 70
     0
  9
$DIMSE2
 70
     0
  9
$DIMTAD
 70
     0
  9
$DIMZIN
 70
     0
  9
$DIMBLK
  1

  9
$DIMASO
 70
     1
  9
$DIMSHO
 70
     1
  9
$DIMPOST
  1

  9
$DIMAPOST
  1

  9
$DIMALT
 70
     0
  9
$DIMALTD
 70
     2
  9
$DIMALTF
 40
25.4
  9
$DIMLFAC
 40
1.0
  9
$DIMTOFL
 70
     0
  9
$DIMTVP
 40
0.0
  9
$DIMTIX
 70
     0
  9
$DIMSOXD
 70
     0
  9
$DIMSAH
 70
     0
  9
$DIMBLK1
  1

  9
$DIMBLK2
  1

  9
$DIMSTYLE
  2
Standard
  9
$DIMCLRD
 70
     0
  9
$DIMCLRE
 70
     0
  9
$DIMCLRT
 70
     0
  9
$DIMTFAC
 40
1.0
  9
$DIMGAP
 40
0.09
  9
$DIMJUST
 70
     0
  9
$DIMSD1
 70
     0
  9
$DIMSD2
 70
     0
  9
$DIMTOLJ
 70
     1
  9
$DIMTZIN
 70
     0
  9
$DIMALTZ
 70
     0
  9
$DIMALTTZ
 70
     0
  9
$DIMUPT
 70
     0
  9
$DIMDEC
 70
     4
  9
$DIMTDEC
 70
     4
  9
$DIMALTU
 70
     2
  9
$DIMALTTD
 70
     2
  9
$DIMTXSTY
  7
Standard
  9
$DIMAUNIT
 70
     0
  9
$DIMADEC
 70
     0
  9
$DIMALTRND
 40
0.0
  9
$DIMAZIN
 70
     0
  9
$DIMDSEP
 70
    46
  9
$DIMATFIT
 70
     3
  9
$DIMFRAC
 70
     0
  9
$DIMLDRBLK
  1

  9
$DIMLUNIT
 70
     2
  9
$DIMLWD
 70
    -2
  9
$DIMLWE
 70
    -2
  9
$DIMTMOVE
 70
     0
  9
$LUNITS
 70
     2
  9
$LUPREC
 70
     4
  9
$SKETCHINC
 40
0.1
  9
$FILLETRAD
 40
8.0
  9
$AUNITS
 70
     0
  9
$AUPREC
 70
     0
  9
$MENU
  1
.
  9
$ELEVATION
 40
0.0
  9
$PELEVATION
 40
0.0
  9
$THICKNESS
 40
0.0
  9
$LIMCHECK
 70
     0
  9
$CHAMFERA
 40
0.0
  9
$CHAMFERB
 40
0.0
  9
$CHAMFERC
 40
90.0
  9
$CHAMFERD
 40
0.0
  9
$SKPOLY
 70
     0
  9
$TDCREATE
 40
2452643.063384271
  9
$TDUCREATE
 40
2452643.063384271
  9
$TDUPDATE
 40
2457416.590903241
  9
$TDUUPDATE
 40
2457416.590903241
  9
$TDINDWG
 40
0.0
  9
$TDUSRTIMER
 40
0.0
  9
$USRTIMER
 70
     1
  9
$ANGBASE
 50
0.0
  9
$ANGDIR
 70
     0
  9
$PDMODE
 70
     0
  9
$PDSIZE
 40
0.0
  9
$PLINEWID
 40
0.0
  9
$SPLFRAME
 70
     0
  9
$SPLINETYPE
 70
     6
  9
$SPLINESEGS
 70
     8
  9
$HANDSEED
  5
AE
  9
$SURFTAB1
 70
     6
  9
$SURFTAB2
 70
     6
  9
$SURFTYPE
 70
     6
  9
$SURFU
 70
     6
  9
$SURFV
 70
     6
  9
$UCSBASE
  2

  9
$UCSNAME
  2

  9
$UCSORG
 10
0.0
 20
0.0
 30
0.0
  9
$UCSXDIR
 10
1.0
 20
0.0
 30
0.0
  9
$UCSYDIR
 10
0.0
 20
1.0
 30
0.0
  9
$UCSORTHOREF
  2

  9
$UCSORTHOVIEW
 70
     0
  9
$UCSORGTOP
 10
0.0
 20
0.0
 30
0.0
  9
$UCSORGBOTTOM
 10
0.0
 20
0.0
 30
0.0
  9
$UCSORGLEFT
 10
0.0
 20
0.0
 30
0.0
  9
$UCSORGRIGHT
 10
0.0
 20
0.0
 30
0.0
  9
$UCSORGFRONT
 10
0.0
 20
0.0
 30
0.0
  9
$UCSORGBACK
 10
0.0
 20
0.0
 30
0.0
  9
$PUCSBASE
  2

  9
$PUCSNAME
  2

  9
$PUCSORG
 10
0.0
 20
0.0
 30
0.0
  9
$PUCSXDIR
 10
1.0
 20
0.0
 30
0.0
  9
$PUCSYDIR
 10
0.0
 20
1.0
 30
0.0
  9
$PUCSORTHOREF
  2

  9
$PUCSORTHOVIEW
 70
     0
  9
$PUCSORGTOP
 10
0.0
 20
0.0
 30
0.0
  9
$PUCSORGBOTTOM
 10
0.0
 20
0.0
 30
0.0
  9
$PUCSORGLEFT
 10
0.0
 20
0.0
 30
0.0
  9
$PUCSORGRIGHT
 10
0.0
 20
0.0
 30
0.0
  9
$PUCSORGFRONT
 10
0.0
 20
0.0
 30
0.0
  9
$PUCSORGBACK
 10
0.0
 20
0.0
 30
0.0
  9
$USERI1
 70
     0
  9
$USERI2
 70
     0
  9
$USERI3
 70
     0
  9
$USERI4
 70
     0
  9
$USERI5
 70
     0
  9
$USERR1
 40
0.0
  9
$USERR2
 40
0.0
  9
$USERR3
 40
0.0
  9
$USERR4
 40
0.0
  9
$USERR5
 40
0.0
  9
$WORLDVIEW
 70
     1
  9
$SHADEDGE
 70
     3
  9
$SHADEDIF
 70
    70
  9
$TILEMODE
 70
     1
  9
$MAXACTVP
 70
    64
  9
$PINSBASE
 10
0.0
 20
0.0
 30
0.0
  9
$PLIMCHECK
 70
     0
  9
$PEXTMIN
 10
1.05
 20
0.6999999999999997
 30
0.0
  9
$PEXTMAX
 10
9.45
 20
6.300000000000001
 30
0.0
  9
$PLIMMIN
 10
-0.25
 20
-0.7500000000000001
  9
$PLIMMAX
 10
10.75
 20
7.75
  9
$UNITMODE
 70
     0
  9
$VISRETAIN
 70
     1
  9
$PLINEGEN
 70
     0
  9
$PSLTSCALE
 70
     1
  9
$TREEDEPTH
 70
  3020
  9
$CMLSTYLE
  2
Standard
  9
$CMLJUST
 70
     0
  9
$CMLSCALE
 40
1.0
  9
$PROXYGRAPHICS
 70
     1
  9
$MEASUREMENT
 70
     0
  9
$CELWEIGHT
370
    -1
  9
$ENDCAPS
280
     0
  9
$JOINSTYLE
280
     0
  9
$LWDISPLAY
290
     0
  9
$INSUNITS
 70
     4
  9
$HYPERLINKBASE
  1

  9
$STYLESHEET
  1

  9
$XEDIT
290
     1
  9
$CEPSNTYPE
380
     0
  9
$PSTYLEMODE
290
     1
  9
$FINGERPRINTGUID
  2
{FDEAD576-A652-11D2-9A35-0060089B3A3F}
  9
$VERSIONGUID
  2
{FBC2AE19-5C5C-49EC-81BC-71B1A3362A02}
  9
$EXTNAMES
290
     1
  9
$PSVPSCALE
 40
0.0
  9
$OLESTARTUP
290
     0
  9
$SORTENTS
280
   127
  9
$INDEXCTL
280
     0
  9
$HIDETEXT
280
     1
  9
$XCLIPFRAME
290
     0
  9
$HALOGAP
280
     0
  9
$OBSCOLOR
 70
   257
  9
$OBSLTYPE
280
     0
  9
$INTERSECTIONDISPLAY
280
     0
  9
$INTERSECTIONCOLOR
 70
   257
  9
$DIMASSOC
280
     2
  9
$PROJECTNAME
  1

  0
ENDSEC
  0
SECTION
  2
CLASSES
  0
CLASS
  1
ACDBDICTIONARYWDFLT
  2
AcDbDictionaryWithDefault
  3
ObjectDBX Classes
 90
        0
 91
        8
280
     0
281
     0
  0
CLASS
  1
MATERIAL
  2
AcDbMaterial
  3
ObjectDBX Classes
 90
     1153
 91
        8
280
     0
281
     0
  0
CLASS
  1
SCALE
  2
AcDbScale
  3
ObjectDBX Classes
 90
     1153
 91
        7
280
     0
281
     0
  0
CLASS
  1
SORTENTSTABLE
  2
AcDbSortentsTable
  3
ObjectDBX Classes
 90
        0
 91
        7
280
     0
281
     0
  0
CLASS
  1
DICTIONARYVAR
  2
AcDbDictionaryVar
  3
ObjectDBX Classes
 90
        0
 91
        7
280
     0
281
     0
  0
ENDSEC
  0
SECTION
  2
TABLES
  0
TABLE
  2
VPORT
  5
20
330
0
100
AcDbSymbolTable
 70
     1
  0
VPORT
  5
25
330
20
100
AcDbSymbolTableRecord
100
AcDbViewportTableRecord
  2
*Active
 70
     0
 10
0.0
 20
0.0
 11
1.0
 21
1.0
 12
444.4853712909766
 22
320.1541686677639
 13
0.0
 23
0.0
 14
0.5
 24
0.5
 15
0.5
 25
0.5
 16
0.0
 26
0.0
 36
1.0
 17
-27.66959356598295
 27
-19.53870295786237
 37
0.0
 40
136.7699803560022
 41
1.640490561075971
 42
50.0
 43
0.0
 44
0.0
 50
0.0
 51
0.0
 71
    16
 72
  1000
 73
     1
 74
     3
 75
     0
 76
     0
 77
     0
 78
     0
281
     0
 65
     1
110
0.0
120
0.0
130
0.0
111
1.0
121
0.0
131
0.0
112
0.0
122
1.0
132
0.0
 79
     0
146
0.0
  0
ENDTAB
  0
TABLE
  2
LTYPE
  5
9
330
0
100
AcDbSymbolTable
 70
     1
  0
LTYPE
  5
A
330
9
100
AcDbSymbolTableRecord
100
AcDbLinetypeTableRecord
  2
ByBlock
 70
     0
  3

 72
    65
 73
     0
 40
0.0
  0
LTYPE
  5
B
330
9
100
AcDbSymbolTableRecord
100
AcDbLinetypeTableRecord
  2
ByLayer
 70
     0
  3

 72
    65
 73
     0
 40
0.0
  0
LTYPE
  5
8
330
9
100
AcDbSymbolTableRecord
100
AcDbLinetypeTableRecord
  2
Continuous
 70
     0
  3
Solid line
 72
    65
 73
     0
 40
0.0
  0
ENDTAB
  0
TABLE
  2
LAYER
  5
2
330
0
100
AcDbSymbolTable
 70
     2
  0
LAYER
  5
1
330
2
100
AcDbSymbolTableRecord
100
AcDbLayerTableRecord
  2
0
 70
     0
 62
     7
  6
Continuous
370
    -3
390
3
  0
LAYER
  5
87
330
2
100
AcDbSymbolTableRecord
100
AcDbLayerTableRecord
  2
LAYER_1
 70
     0
 62
     7
  6
Continuous
370
    -3
390
3
  0
ENDTAB
  0
TABLE
  2
STYLE
  5
D
330
0
100
AcDbSymbolTable
 70
     2
  0
STYLE
  5
C
330
D
100
AcDbSymbolTableRecord
100
AcDbTextStyleTableRecord
  2
Standard
 70
     0
 40
0.0
 41
1.0
 50
0.0
 71
     0
 42
5.444664823089227
  3
arial.ttf
  4

1001
ACAD
1000
Arial
1071
        0
  0
ENDTAB
  0
TABLE
  2
VIEW
  5
1E
330
0
100
AcDbSymbolTable
 70
     0
  0
ENDTAB
  0
TABLE
  2
UCS
  5
1F
330
0
100
AcDbSymbolTable
 70
     0
  0
ENDTAB
  0
TABLE
  2
APPID
  5
F
330
0
100
AcDbSymbolTable
 70
     3
  0
APPID
  5
E
330
F
100
AcDbSymbolTableRecord
100
AcDbRegAppTableRecord
  2
ACAD
 70
     0
  0
ENDTAB
  0
TABLE
  2
DIMSTYLE
  5
11
330
0
100
AcDbSymbolTable
 70
     2
100
AcDbDimStyleTable
  0
DIMSTYLE
105
10
330
11
100
AcDbSymbolTableRecord
100
AcDbDimStyleTableRecord
  2
Standard
 70
     0
178
     0
340
C
  0
ENDTAB
  0
TABLE
  2
BLOCK_RECORD
  5
14
330
0
100
AcDbSymbolTable
 70
     8
  0
BLOCK_RECORD
  5
15
330
14
100
AcDbSymbolTableRecord
100
AcDbBlockTableRecord
  2
*Model_Space
340
18
  0
BLOCK_RECORD
  5
1A
330
14
100
AcDbSymbolTableRecord
100
AcDbBlockTableRecord
  2
*Paper_Space
340
1D
  0
BLOCK_RECORD
  5
82
102
{ACAD_XDICTIONARY
360
83
102
}
330
14
100
AcDbSymbolTableRecord
100
AcDbBlockTableRecord
  2
kitronik logo stritched
340
0
102
{BLKREFS
331
81
102
}
  0
ENDTAB
  0
ENDSEC
  0
SECTION
  2
BLOCKS
  0
BLOCK
  5
16
330
15
100
AcDbEntity
  8
0
100
AcDbBlockBegin
  2
*Model_Space
 70
     0
 10
0.0
 20
0.0
 30
0.0
  3
*Model_Space
  1

  0
ENDBLK
  5
17
330
15
100
AcDbEntity
  8
0
100
AcDbBlockEnd
  0
BLOCK
  5
1B
330
1A
100
AcDbEntity
 67
     1
  8
0
100
AcDbBlockBegin
  2
*Paper_Space
 70
     0
 10
0.0
 20
0.0
 30
0.0
  3
*Paper_Space
  1

  0
ENDBLK
  5
1C
330
1A
100
AcDbEntity
 67
     1
  8
0
100
AcDbBlockEnd
  0
BLOCK
  5
85
330
82
100
AcDbEntity
  8
0
100
AcDbBlockBegin
  2
kitronik logo stritched
 70
     0
 10
0.0
 20
0.0
 30
0.0
  3
kitronik logo stritched
  1
kitronik logo stritched
  0
LWPOLYLINE
  5
86
330
82
100
AcDbEntity
  8
LAYER_1
 62
     7
100
AcDbPolyline
 90
       14
 70
     0
 43
0.0
 10
273.3492995936675
 20
1585.30192055298
 10
273.3492995936675
 20
1582.208001561329
 10
273.9797082152005
 20
1582.208001561329
 10
273.9797082152005
 20
1583.228629838173
 10
274.2242275759976
 20
1583.540364453907
 10
274.9337936586269
 20
1582.208001561329
 10
275.6494922255001
 20
1582.208001561329
 10
274.6825769795108
 20
1583.991021355255
 10
275.5930357148508
 20
1585.30192055298
 10
274.8454374711647
 20
1585.30192055298
 10
273.9725536502493
 20
1583.954226449791
 10
273.9725536502493
 20
1585.30192055298
 10
273.3492995936675
 20
1585.30192055298
 10
273.3492995936675
 20
1585.30192055298
  0
LWPOLYLINE
  5
88
330
82
100
AcDbEntity
  8
LAYER_1
 62
     7
100
AcDbPolyline
 90
        6
 70
     0
 43
0.0
 10
275.9425066261734
 20
1582.208009630386
 10
276.5473632300236
 20
1582.208009630386
 10
276.5473632300236
 20
1584.445747751629
 10
275.9425066261734
 20
1584.445747751629
 10
275.9425066261734
 20
1582.208009630386
 10
275.9425066261734
 20
1582.208009630386
  0
LWPOLYLINE
  5
89
330
82
100
AcDbEntity
  8
LAYER_1
 62
     7
100
AcDbPolyline
 90
        6
 70
     0
 43
0.0
 10
285.1335135930634
 20
1582.208009630386
 10
285.7372136319026
 20
1582.208009630386
 10
285.7372136319026
 20
1584.445747751629
 10
285.1335135930634
 20
1584.445747751629
 10
285.1335135930634
 20
1582.208009630386
 10
285.1335135930634
 20
1582.208009630386
  0
LWPOLYLINE
  5
8A
330
82
100
AcDbEntity
  8
LAYER_1
 62
     7
100
AcDbPolyline
 90
      181
 70
     1
 43
0.0
 10
277.7080138740861
 20
1582.212323886845
 10
277.7130022397324
 20
1582.211808052376
 10
277.7180277403241
 20
1582.211335178169
 10
277.7230885663935
 20
1582.210903396389
 10
277.7281829084726
 20
1582.210510839197
 10
277.7333089570946
 20
1582.210155638756
 10
277.7384649027911
 20
1582.209835927229
 10
277.7436489360948
 20
1582.209549836778
 10
277.7488592475379
 20
1582.209295499564
 10
277.7540940276531
 20
1582.209071047753
 10
277.7593514669726
 20
1582.208874613503
 10
277.7646297560286
 20
1582.20870432898
 10
277.7699270853537
 20
1582.208558326345
 10
277.7752416454803
 20
1582.20843473776
 10
277.7805716269405
 20
1582.208331695389
 10
277.7859152202669
 20
1582.208247331393
 10
277.7912706159919
 20
1582.208179777935
 10
277.7966360046477
 20
1582.208127167177
 10
277.8020095767669
 20
1582.208087631283
 10
277.8073895228814
 20
1582.208059302413
 10
277.8127740335242
 20
1582.208040312731
 10
277.8181612992274
 20
1582.208028794399
 10
277.8235495105232
 20
1582.20802287958
 10
277.8289368579443
 20
1582.208020700437
 10
277.8343215320228
 20
1582.208020389131
 10
277.8520436603057
 20
1582.208178499633
 10
277.8705552768251
 20
1582.208637507092
 10
277.8897381007682
 20
1582.20937442543
 10
277.9094738513219
 20
1582.21036626857
 10
277.9296442476735
 20
1582.21159005044
 10
277.9501310090101
 20
1582.213022784961
 10
277.9708158545187
 20
1582.214641486058
 10
277.9915805033869
 20
1582.216423167655
 10
278.0123066748015
 20
1582.218344843677
 10
278.0328760879497
 20
1582.220383528047
 10
278.0531704620186
 20
1582.22251623469
 10
278.0730715161953
 20
1582.22471997753
 10
278.0924609696674
 20
1582.22697177049
 10
278.1112205416215
 20
1582.229248627495
 10
278.1292319512451
 20
1582.231527562471
 10
278.1463769177252
 20
1582.233785589339
 10
278.1625371602489
 20
1582.235999722025
 10
278.1775943980034
 20
1582.238146974454
 10
278.191430350176
 20
1582.240204360546
 10
278.2039267359537
 20
1582.24214889423
 10
278.2149652745237
 20
1582.243957589428
 10
278.2244276850729
 20
1582.245607460064
 10
278.232195686789
 20
1582.247075520063
 10
278.2381509988586
 20
1582.248338783349
 10
278.2381509988586
 20
1582.754026661727
 10
278.2288405933182
 20
1582.753977767188
 10
278.2187301112373
 20
1582.753836671518
 10
278.207892503346
 20
1582.753611756637
 10
278.196400720375
 20
1582.753311404468
 10
278.1843277130544
 20
1582.752943996931
 10
278.1717464321143
 20
1582.752517915946
 10
278.1587298282852
 20
1582.752041543436
 10
278.1453508522977
 20
1582.75152326132
 10
278.1316824548818
 20
1582.750971451521
 10
278.1177975867676
 20
1582.750394495958
 10
278.1037691986859
 20
1582.749800776554
 10
278.0896702413668
 20
1582.749198675229
 10
278.0755736655403
 20
1582.748596573903
 10
278.0615524219371
 20
1582.748002854498
 10
278.0476794612877
 20
1582.747425898935
 10
278.0340277343216
 20
1582.746874089136
 10
278.0206701917699
 20
1582.74635580702
 10
278.0076797843626
 20
1582.74587943451
 10
277.9951294628299
 20
1582.745453353526
 10
277.9830921779024
 20
1582.745085945988
 10
277.9716408803101
 20
1582.744785593819
 10
277.9608485207838
 20
1582.744560678938
 10
277.9507880500531
 20
1582.744419583268
 10
277.9415324188489
 20
1582.744370688729
 10
277.9396283569245
 20
1582.74437588949
 10
277.9369163385199
 20
1582.744412294809
 10
277.9334586326694
 20
1582.744511109254
 10
277.9293175084074
 20
1582.74470353738
 10
277.924555234768
 20
1582.745020783751
 10
277.9192340807859
 20
1582.745494052928
 10
277.9134163154953
 20
1582.74615454947
 10
277.9071642079301
 20
1582.74703347794
 10
277.9005400271252
 20
1582.748162042899
 10
277.8936060421146
 20
1582.749571448907
 10
277.8864245219327
 20
1582.751292900526
 10
277.8790577356136
 20
1582.753357602317
 10
277.8715679521921
 20
1582.75579675884
 10
277.8640174407023
 20
1582.758641574658
 10
277.8564684701782
 20
1582.76192325433
 10
277.8489833096547
 20
1582.765673002418
 10
277.8416242281658
 20
1582.769922023484
 10
277.8344534947456
 20
1582.774701522088
 10
277.8275333784288
 20
1582.780042702791
 10
277.8209261482497
 20
1582.785976770154
 10
277.8146940732423
 20
1582.792534928739
 10
277.8088994224412
 20
1582.799748383105
 10
277.8036044648807
 20
1582.807648337816
 10
277.798871469595
 20
1582.816265997431
 10
277.7965492572131
 20
1582.821033563277
 10
277.7944566487621
 20
1582.825950205907
 10
277.792582016953
 20
1582.83102743587
 10
277.7909137344972
 20
1582.836276763716
 10
277.7894401741062
 20
1582.841709699993
 10
277.7881497084909
 20
1582.84733775525
 10
277.7870307103626
 20
1582.853172440036
 10
277.7860715524329
 20
1582.8592252649
 10
277.7852606074126
 20
1582.86550774039
 10
277.7845862480132
 20
1582.872031377057
 10
277.7840368469457
 20
1582.878807685447
 10
277.7836007769218
 20
1582.885848176111
 10
277.7832664106523
 20
1582.893164359598
 10
277.7830221208487
 20
1582.900767746456
 10
277.7828562802224
 20
1582.908669847234
 10
277.7827572614842
 20
1582.916882172481
 10
277.7827134373458
 20
1582.925416232746
 10
277.782713180518
 20
1582.934283538578
 10
277.7827448637125
 20
1582.943495600526
 10
277.7827968596403
 20
1582.953063929138
 10
277.7828575410127
 20
1582.963000034965
 10
277.782915280541
 20
1582.973315428553
 10
277.7829584509363
 20
1582.984021620453
 10
277.7829754249101
 20
1582.995130121213
 10
277.7829754249101
 20
1583.989991205489
 10
277.7829754249101
 20
1583.989991205489
 10
278.2472421377815
 20
1583.989776030604
 10
278.2472421377815
 20
1584.483548599684
 10
277.7829754249101
 20
1584.483548599684
 10
277.7829754249101
 20
1585.087167947941
 10
277.1828795654073
 20
1584.901122362347
 10
277.1828795654073
 20
1584.483548599684
 10
276.9136150927488
 20
1584.483548599684
 10
276.9136150927488
 20
1583.999996837677
 10
277.1828795654073
 20
1583.994536774951
 10
277.1828795654073
 20
1582.927107960455
 10
277.1828508221114
 20
1582.901435875839
 10
277.1828149226628
 20
1582.875585809652
 10
277.1828473627206
 20
1582.849600558724
 10
277.1830236379437
 20
1582.82352291988
 10
277.183419243991
 20
1582.79739568995
 10
277.1841096765216
 20
1582.77126166576
 10
277.1851704311947
 20
1582.745163644139
 10
277.1866770036688
 20
1582.719144421915
 10
277.1887048896032
 20
1582.693246795915
 10
277.1913295846566
 20
1582.667513562968
 10
277.1946265844881
 20
1582.6419875199
 10
277.1986713847568
 20
1582.616711463542
 10
277.2035394811216
 20
1582.591728190718
 10
277.2093063692415
 20
1582.567080498259
 10
277.2160475447754
 20
1582.542811182991
 10
277.2238385033822
 20
1582.518963041743
 10
277.2327547407211
 20
1582.495578871342
 10
277.2428717524508
 20
1582.472701468617
 10
277.2542650342303
 20
1582.450373630395
 10
277.2670100817189
 20
1582.428638153504
 10
277.2811823905751
 20
1582.407537834771
 10
277.2968574564583
 20
1582.387115471025
 10
277.3141107750274
 20
1582.367413859094
 10
277.3330178419409
 20
1582.348475795806
 10
277.350547382553
 20
1582.332170716099
 10
277.368450549045
 20
1582.317251513485
 10
277.3866538069869
 20
1582.30365527686
 10
277.4050836219501
 20
1582.291319095119
 10
277.4236664595045
 20
1582.280180057162
 10
277.4423287852205
 20
1582.270175251881
 10
277.4609970646688
 20
1582.261241768176
 10
277.4795977634196
 20
1582.253316694942
 10
277.4980573470436
 20
1582.246337121075
 10
277.5163022811113
 20
1582.240240135473
 10
277.5342590311928
 20
1582.234962827031
 10
277.551854062859
 20
1582.230442284648
 10
277.5690138416799
 20
1582.226615597217
 10
277.5856648332261
 20
1582.223419853638
 10
277.6017335030684
 20
1582.220792142805
 10
277.617146316777
 20
1582.218669553615
 10
277.6318297399221
 20
1582.216989174966
 10
277.6457102380745
 20
1582.215688095753
 10
277.6587142768046
 20
1582.214703404873
 10
277.6707683216829
 20
1582.213972191223
 10
277.6817988382796
 20
1582.213431543698
 10
277.6917322921654
 20
1582.213018551196
 10
277.7004951489108
 20
1582.212670302612
  0
LWPOLYLINE
  5
8B
330
82
100
AcDbEntity
  8
LAYER_1
 62
     7
100
AcDbPolyline
 90
      103
 70
     1
 43
0.0
 10
279.8915736487828
 20
1583.825215657353
 10
279.8915736487828
 20
1584.468454081448
 10
279.8820101609826
 20
1584.467664274123
 10
279.8720120040366
 20
1584.467438787218
 10
279.8615574876815
 20
1584.467675123146
 10
279.8506249216532
 20
1584.468270784324
 10
279.8391926156883
 20
1584.469123273164
 10
279.8272388795235
 20
1584.470130092082
 10
279.8147420228952
 20
1584.471188743492
 10
279.8016803555396
 20
1584.472196729808
 10
279.7880321871935
 20
1584.473051553446
 10
279.7737758275929
 20
1584.473650716819
 10
279.7588895864748
 20
1584.473891722341
 10
279.7433517735752
 20
1584.473672072428
 10
279.7271406986309
 20
1584.472889269494
 10
279.7102346713781
 20
1584.471440815951
 10
279.6926120015532
 20
1584.469224214218
 10
279.674250998893
 20
1584.466136966706
 10
279.6551299731336
 20
1584.462076575832
 10
279.6352272340116
 20
1584.456940544006
 10
279.6145210912634
 20
1584.450626373648
 10
279.5929898546256
 20
1584.443031567169
 10
279.5706118338343
 20
1584.434053626984
 10
279.5473653386265
 20
1584.423590055508
 10
279.5232286787382
 20
1584.411538355155
 10
279.4981801639059
 20
1584.397796028339
 10
279.4822352013338
 20
1584.387918463655
 10
279.4663094074446
 20
1584.376674926023
 10
279.4504471667279
 20
1584.364184093171
 10
279.4346928636737
 20
1584.350564642826
 10
279.4190908827717
 20
1584.33593525272
 10
279.4036856085115
 20
1584.320414600578
 10
279.3885214253834
 20
1584.30412136413
 10
279.3736427178766
 20
1584.287174221102
 10
279.3590938704812
 20
1584.269691849225
 10
279.3449192676868
 20
1584.251792926227
 10
279.3311632939834
 20
1584.233596129835
 10
279.3178703338606
 20
1584.215220137779
 10
279.3050847718082
 20
1584.196783627785
 10
279.2928509923161
 20
1584.178405277583
 10
279.281213379874
 20
1584.160203764902
 10
279.2702163189715
 20
1584.142297767469
 10
279.2599041940988
 20
1584.124805963013
 10
279.2503213897453
 20
1584.107847029261
 10
279.2415122904011
 20
1584.091539643943
 10
279.2335212805556
 20
1584.076002484787
 10
279.226392744699
 20
1584.06135422952
 10
279.2201710673206
 20
1584.047713555872
 10
279.2149006329105
 20
1584.035199141571
 10
279.2106258259586
 20
1584.023929664344
 10
279.2106258259586
 20
1584.427221193966
 10
278.6221225134257
 20
1584.427221193966
 10
278.6221225134257
 20
1584.427221193966
 10
278.6221225134257
 20
1582.208015009758
 10
279.2571842918631
 20
1582.208015009758
 10
279.2571842918631
 20
1583.40317701581
 10
279.2578039722641
 20
1583.422987717236
 10
279.2596218354311
 20
1583.442675398212
 10
279.2625761143117
 20
1583.462203332382
 10
279.2666050418526
 20
1583.481534793389
 10
279.2716468510008
 20
1583.500633054879
 10
279.2776397747035
 20
1583.519461390492
 10
279.2845220459076
 20
1583.537983073879
 10
279.2922318975602
 20
1583.556161378679
 10
279.3007075626082
 20
1583.573959578538
 10
279.3098872739988
 20
1583.591340947099
 10
279.3197092646787
 20
1583.608268758007
 10
279.3301117675954
 20
1583.624706284907
 10
279.3410330156954
 20
1583.640616801442
 10
279.3524112419261
 20
1583.655963581256
 10
279.3641846792344
 20
1583.670709897993
 10
279.3762915605673
 20
1583.684819025299
 10
279.3886701188719
 20
1583.698254236816
 10
279.4012585870951
 20
1583.71097880619
 10
279.413995198184
 20
1583.722956007065
 10
279.4268181850857
 20
1583.734149113083
 10
279.4396657807469
 20
1583.744521397889
 10
279.452476218115
 20
1583.75403613513
 10
279.4651877301369
 20
1583.762656598447
 10
279.4777385497595
 20
1583.770346061485
 10
279.4986231429831
 20
1583.781588569861
 10
279.5202626577747
 20
1583.791489562287
 10
279.5425109708677
 20
1583.800125771864
 10
279.5652219589956
 20
1583.807573931693
 10
279.5882494988926
 20
1583.813910774876
 10
279.6114474672918
 20
1583.819213034513
 10
279.6346697409273
 20
1583.823557443708
 10
279.6577701965324
 20
1583.82702073556
 10
279.6806027108411
 20
1583.829679643172
 10
279.7030211605868
 20
1583.831610899644
 10
279.7248794225033
 20
1583.832891238077
 10
279.7460313733244
 20
1583.833597391574
 10
279.7663308897835
 20
1583.833806093235
 10
279.7856318486147
 20
1583.833594076163
 10
279.8037881265512
 20
1583.833038073457
 10
279.8206536003269
 20
1583.832214818219
 10
279.8360821466754
 20
1583.831201043552
 10
279.8499276423304
 20
1583.830073482556
 10
279.8620439640257
 20
1583.828908868333
 10
279.8722849884947
 20
1583.827783933983
 10
279.8805045924713
 20
1583.826775412609
 10
279.8865566526889
 20
1583.825960037312
 10
279.8902950458817
 20
1583.825414541192
  0
LWPOLYLINE
  5
8C
330
82
100
AcDbEntity
  8
LAYER_1
 62
     7
100
AcDbPolyline
 90
      201
 70
     1
 43
0.0
 10
283.5824227394311
 20
1583.960361623721
 10
283.6036943622147
 20
1583.959928238714
 10
283.624035451679
 20
1583.958655167336
 10
283.6434736751678
 20
1583.956583035054
 10
283.6620367000244
 20
1583.953752467334
 10
283.6797521935928
 20
1583.950204089645
 10
283.6966478232166
 20
1583.945978527452
 10
283.7127512562395
 20
1583.941116406222
 10
283.7280901600051
 20
1583.935658351421
 10
283.7426922018577
 20
1583.929644988517
 10
283.7565850491401
 20
1583.923116942976
 10
283.7697963691966
 20
1583.916114840265
 10
283.7823538293709
 20
1583.90867930585
 10
283.7942850970066
 20
1583.900850965198
 10
283.8056178394472
 20
1583.892670443777
 10
283.8163797240367
 20
1583.884178367051
 10
283.8265984181187
 20
1583.87541536049
 10
283.8363015890369
 20
1583.866422049559
 10
283.8455169041353
 20
1583.857239059724
 10
283.8542720307568
 20
1583.847907016454
 10
283.8625946362462
 20
1583.838466545213
 10
283.8705123879462
 20
1583.828958271469
 10
283.8780529532012
 20
1583.819422820688
 10
283.8852439993547
 20
1583.809900818338
 10
283.8921131937502
 20
1583.800432889885
 10
283.896724281505
 20
1583.793759993543
 10
283.9013973114228
 20
1583.78643849061
 10
283.9061093324493
 20
1583.778481269168
 10
283.9108373935309
 20
1583.769901217294
 10
283.9155585436133
 20
1583.760711223068
 10
283.920249831643
 20
1583.750924174571
 10
283.9248883065661
 20
1583.740552959879
 10
283.9294510173282
 20
1583.729610467072
 10
283.9339150128762
 20
1583.71810958423
 10
283.9382573421557
 20
1583.706063199431
 10
283.9424550541129
 20
1583.693484200755
 10
283.9464851976938
 20
1583.680385476281
 10
283.9503248218446
 20
1583.666779914088
 10
283.9539509755115
 20
1583.652680402254
 10
283.9573407076404
 20
1583.63809982886
 10
283.9604710671777
 20
1583.623051081984
 10
283.9633191030692
 20
1583.607547049705
 10
283.9658618642611
 20
1583.591600620101
 10
283.9680763996996
 20
1583.575224681254
 10
283.9699397583308
 20
1583.558432121241
 10
283.9714289891007
 20
1583.541235828142
 10
283.9725211409555
 20
1583.523648690035
 10
283.9731932628411
 20
1583.505683595
 10
283.9734224037038
 20
1583.487353431116
 10
283.9734224037038
 20
1582.231727282168
 10
284.5816949088652
 20
1582.231727282168
 10
284.5816949088652
 20
1582.231727282168
 10
284.5816949088652
 20
1583.750700594416
 10
284.5811159414861
 20
1583.784443607031
 10
284.5793701359894
 20
1583.817687708562
 10
284.5764441373367
 20
1583.850418131418
 10
284.5723245904898
 20
1583.88262010801
 10
284.5669981404098
 20
1583.914278870747
 10
284.5604514320586
 20
1583.945379652037
 10
284.5526711103975
 20
1583.975907684291
 10
284.543643820388
 20
1584.005848199917
 10
284.5333562069918
 20
1584.035186431325
 10
284.5217949151701
 20
1584.063907610925
 10
284.5089465898849
 20
1584.091996971126
 10
284.4947978760972
 20
1584.119439744337
 10
284.4793354187688
 20
1584.146221162966
 10
284.4625458628612
 20
1584.172326459425
 10
284.4444158533358
 20
1584.197740866123
 10
284.4249320351545
 20
1584.222449615468
 10
284.4040810532782
 20
1584.246437939869
 10
284.381849552669
 20
1584.269691071738
 10
284.3582241782879
 20
1584.292194243481
 10
284.3331915750969
 20
1584.313932687511
 10
284.3067383880572
 20
1584.334891636235
 10
284.2788512621304
 20
1584.355056322062
 10
284.249516842278
 20
1584.374411977403
 10
284.2187217734617
 20
1584.392943834666
 10
284.200238293191
 20
1584.403255751352
 10
284.181540116668
 20
1584.412756594606
 10
284.1626944043264
 20
1584.42147946017
 10
284.1437683166004
 20
1584.429457443794
 10
284.1248290139237
 20
1584.436723641224
 10
284.1059436567302
 20
1584.443311148206
 10
284.0871794054537
 20
1584.449253060487
 10
284.0686034205285
 20
1584.454582473813
 10
284.0502828623879
 20
1584.459332483931
 10
284.0322848914665
 20
1584.463536186588
 10
284.0146766681978
 20
1584.467226677531
 10
283.9975253530156
 20
1584.470437052505
 10
283.9808981063543
 20
1584.473200407257
 10
283.9648620886472
 20
1584.475549837535
 10
283.9494844603286
 20
1584.477518439083
 10
283.9348323818322
 20
1584.47913930765
 10
283.9209730135921
 20
1584.480445538981
 10
283.907973516042
 20
1584.481470228824
 10
283.895901049616
 20
1584.482246472925
 10
283.8848227747478
 20
1584.482807367031
 10
283.8748058518715
 20
1584.483186006887
 10
283.8659174414208
 20
1584.483415488241
 10
283.8582247038298
 20
1584.483528906839
 10
283.8517947995324
 20
1584.483559358429
 10
283.8213862796969
 20
1584.483082795242
 10
283.7918309880542
 20
1584.48168959078
 10
283.7631326602795
 20
1584.479434472679
 10
283.7352950320478
 20
1584.476372168581
 10
283.7083218390342
 20
1584.472557406126
 10
283.682216816914
 20
1584.468044912955
 10
283.6569837013617
 20
1584.462889416707
 10
283.6326262280532
 20
1584.457145645022
 10
283.6091481326629
 20
1584.450868325542
 10
283.5865531508665
 20
1584.444112185905
 10
283.5648450183386
 20
1584.436931953753
 10
283.5440274707546
 20
1584.429382356725
 10
283.5241042437895
 20
1584.421518122461
 10
283.5050790731184
 20
1584.413393978604
 10
283.4869556944163
 20
1584.405064652791
 10
283.4697378433585
 20
1584.396584872663
 10
283.45342925562
 20
1584.388009365861
 10
283.4380336668758
 20
1584.379392860025
 10
283.4235548128013
 20
1584.370790082795
 10
283.4099964290713
 20
1584.36225576181
 10
283.3973622513612
 20
1584.353844624713
 10
283.3856560153456
 20
1584.345611399142
 10
283.3748814567002
 20
1584.337610812737
 10
283.3650423110996
 20
1584.32989759314
 10
283.3584357677397
 20
1584.324437131553
 10
283.3515764942856
 20
1584.318602203559
 10
283.3444888543428
 20
1584.31240722653
 10
283.3371972115177
 20
1584.305866617835
 10
283.3297259294162
 20
1584.298994794848
 10
283.3220993716443
 20
1584.291806174937
 10
283.3143419018082
 20
1584.284315175475
 10
283.3064778835139
 20
1584.276536213834
 10
283.2985316803674
 20
1584.268483707383
 10
283.2905276559748
 20
1584.260172073493
 10
283.2824901739419
 20
1584.251615729537
 10
283.274443597875
 20
1584.242829092886
 10
283.2664122913802
 20
1584.233826580909
 10
283.2584206180633
 20
1584.224622610977
 10
283.2504929415303
 20
1584.215231600464
 10
283.2426536253877
 20
1584.205667966739
 10
283.2349270332411
 20
1584.195946127174
 10
283.2273375286967
 20
1584.186080499139
 10
283.2199094753605
 20
1584.176085500006
 10
283.2126672368386
 20
1584.165975547146
 10
283.205635176737
 20
1584.155765057929
 10
283.1988376586617
 20
1584.145468449728
 10
283.1922990462187
 20
1584.135100139912
 10
283.1860437030143
 20
1584.124674545854
 10
283.1860437030143
 20
1584.45480661432
 10
282.6534320670556
 20
1584.45480661432
 10
282.6534320670556
 20
1582.208004251014
 10
283.2622425094314
 20
1582.208004251014
 10
283.2622425094314
 20
1583.407039405009
 10
283.2623196919812
 20
1583.439233170898
 10
283.2625730699817
 20
1583.469918459508
 10
283.2630353889603
 20
1583.499147652008
 10
283.263739394444
 20
1583.526973129568
 10
283.2647178319595
 20
1583.553447273356
 10
283.2660034470341
 20
1583.578622464541
 10
283.2676289851948
 20
1583.602551084294
 10
283.2696271919689
 20
1583.625285513784
 10
283.2720308128829
 20
1583.646878134179
 10
283.2748725934643
 20
1583.667381326649
 10
283.27818527924
 20
1583.686847472363
 10
283.282001615737
 20
1583.705328952491
 10
283.2863543484826
 20
1583.722878148201
 10
283.2912762230035
 20
1583.739547440665
 10
283.296799984827
 20
1583.755389211049
 10
283.3029583794798
 20
1583.770455840524
 10
283.3097841524895
 20
1583.784799710259
 10
283.3173100493826
 20
1583.798473201424
 10
283.3255688156864
 20
1583.811528695187
 10
283.334593196928
 20
1583.824018572719
 10
283.3444159386345
 20
1583.835995215187
 10
283.3550697863326
 20
1583.847511003762
 10
283.3665874855498
 20
1583.858618319613
 10
283.3790017818127
 20
1583.869369543909
 10
283.388433655164
 20
1583.877731897369
 10
283.3981011211999
 20
1583.885618781109
 10
283.4079607176759
 20
1583.893040830126
 10
283.417968982347
 20
1583.90000867942
 10
283.4280824529681
 20
1583.906532963993
 10
283.4382576672941
 20
1583.912624318843
 10
283.4484511630801
 20
1583.918293378971
 10
283.4586194780813
 20
1583.923550779377
 10
283.4687191500524
 20
1583.928407155061
 10
283.4787067167487
 20
1583.932873141024
 10
283.4885387159248
 20
1583.936959372264
 10
283.4981716853362
 20
1583.940676483782
 10
283.5075621627376
 20
1583.944035110579
 10
283.516666685884
 20
1583.947045887654
 10
283.5254417925306
 20
1583.949719450007
 10
283.5338440204323
 20
1583.952066432639
 10
283.5418299073442
 20
1583.95409747055
 10
283.549355991021
 20
1583.955823198738
 10
283.5563788092181
 20
1583.957254252206
 10
283.5628548996904
 20
1583.958401265951
 10
283.5687408001927
 20
1583.959274874976
 10
283.5739930484804
 20
1583.959885714279
 10
283.5785681823081
 20
1583.960244418861
  0
LWPOLYLINE
  5
8D
330
82
100
AcDbEntity
  8
LAYER_1
 62
     7
100
AcDbPolyline
 90
       96
 70
     1
 43
0.0
 10
276.5626917509475
 20
1586.717870819616
 10
276.561957361973
 20
1586.740819851966
 10
276.5597859405056
 20
1586.76335106073
 10
276.5562251047288
 20
1586.785414773103
 10
276.5513224728259
 20
1586.80696131628
 10
276.5451256629807
 20
1586.827941017457
 10
276.5376822933765
 20
1586.848304203829
 10
276.5290399821972
 20
1586.86800120259
 10
276.5192463476259
 20
1586.886982340937
 10
276.5083490078463
 20
1586.905197946063
 10
276.4963955810421
 20
1586.922598345165
 10
276.4834336853968
 20
1586.939133865438
 10
276.4695109390937
 20
1586.954754834076
 10
276.4546749603167
 20
1586.969411578275
 10
276.438973367249
 20
1586.98305442523
 10
276.4224537780742
 20
1586.995633702136
 10
276.405163810976
 20
1587.007099736187
 10
276.3871510841379
 20
1587.017402854582
 10
276.3684632157432
 20
1587.026493384512
 10
276.3491478239759
 20
1587.034321653174
 10
276.3292525270191
 20
1587.040837987762
 10
276.3088249430566
 20
1587.045992715473
 10
276.2879126902717
 20
1587.049736163501
 10
276.2665633868482
 20
1587.052018659042
 10
276.2448246509697
 20
1587.052790529289
 10
276.2231134773687
 20
1587.052018659042
 10
276.2017929269695
 20
1587.049736163501
 10
276.1809104078237
 20
1587.045992715473
 10
276.1605133279831
 20
1587.040837987762
 10
276.1406490954996
 20
1587.034321653174
 10
276.1213651184249
 20
1587.026493384512
 10
276.1027088048111
 20
1587.017402854582
 10
276.0847275627096
 20
1587.007099736187
 10
276.0674688001725
 20
1586.995633702136
 10
276.0509799252515
 20
1586.98305442523
 10
276.0353083459985
 20
1586.969411578275
 10
276.0205014704651
 20
1586.954754834076
 10
276.0066067067033
 20
1586.939133865438
 10
275.993671462765
 20
1586.922598345165
 10
275.9817431467018
 20
1586.905197946063
 10
275.9708691665658
 20
1586.886982340937
 10
275.9610969304085
 20
1586.86800120259
 10
275.9524738462819
 20
1586.848304203829
 10
275.9450473222377
 20
1586.827941017457
 10
275.9388647663276
 20
1586.80696131628
 10
275.9339735866038
 20
1586.785414773103
 10
275.9304211911178
 20
1586.76335106073
 10
275.9282549879216
 20
1586.740819851966
 10
275.9275223850669
 20
1586.717870819616
 10
275.9282549879216
 20
1586.694950802955
 10
275.9304211911178
 20
1586.672446193365
 10
275.9339735866038
 20
1586.650406768717
 10
275.9388647663276
 20
1586.628882306881
 10
275.9450473222377
 20
1586.607922585729
 10
275.9524738462819
 20
1586.587577383131
 10
275.9610969304085
 20
1586.567896476957
 10
275.9708691665658
 20
1586.548929645079
 10
275.9817431467018
 20
1586.530726665366
 10
275.993671462765
 20
1586.513337315691
 10
276.0066067067033
 20
1586.496811373923
 10
276.0205014704651
 20
1586.481198617933
 10
276.0353083459985
 20
1586.466548825593
 10
276.0509799252515
 20
1586.452911774771
 10
276.0674688001725
 20
1586.44033724334
 10
276.0847275627096
 20
1586.42887500917
 10
276.1027088048111
 20
1586.418574850131
 10
276.1213651184249
 20
1586.409486544095
 10
276.1406490954996
 20
1586.401659868932
 10
276.1605133279831
 20
1586.395144602513
 10
276.1809104078237
 20
1586.389990522708
 10
276.2017929269695
 20
1586.386247407389
 10
276.2231134773687
 20
1586.383965034425
 10
276.2448246509697
 20
1586.383193181689
 10
276.2665633868482
 20
1586.383965034425
 10
276.2879126902717
 20
1586.386247407389
 10
276.3088249430566
 20
1586.389990522708
 10
276.3292525270191
 20
1586.395144602513
 10
276.3491478239759
 20
1586.401659868932
 10
276.3684632157432
 20
1586.409486544095
 10
276.3871510841379
 20
1586.418574850131
 10
276.405163810976
 20
1586.42887500917
 10
276.4224537780742
 20
1586.44033724334
 10
276.438973367249
 20
1586.452911774771
 10
276.4546749603167
 20
1586.466548825593
 10
276.4695109390937
 20
1586.481198617933
 10
276.4834336853968
 20
1586.496811373923
 10
276.4963955810421
 20
1586.513337315691
 10
276.5083490078463
 20
1586.530726665366
 10
276.5192463476259
 20
1586.548929645079
 10
276.5290399821972
 20
1586.567896476957
 10
276.5376822933765
 20
1586.587577383131
 10
276.5451256629807
 20
1586.607922585729
 10
276.5513224728259
 20
1586.628882306881
 10
276.5562251047288
 20
1586.650406768717
 10
276.5597859405056
 20
1586.672446193365
 10
276.561957361973
 20
1586.694950802955
  0
LWPOLYLINE
  5
8E
330
82
100
AcDbEntity
  8
LAYER_1
 62
     7
100
AcDbPolyline
 90
       96
 70
     1
 43
0.0
 10
285.752340426371
 20
1586.717870819616
 10
285.7516106505662
 20
1586.740819851966
 10
285.7494524693432
 20
1586.76335106073
 10
285.7459126019884
 20
1586.785414773103
 10
285.7410377677888
 20
1586.80696131628
 10
285.7348746860311
 20
1586.827941017457
 10
285.7274700760017
 20
1586.848304203829
 10
285.7188706569877
 20
1586.86800120259
 10
285.7091231482757
 20
1586.886982340937
 10
285.6982742691522
 20
1586.905197946063
 10
285.6863707389043
 20
1586.922598345165
 10
285.6734592768183
 20
1586.939133865438
 10
285.6595866021814
 20
1586.954754834076
 10
285.6447994342799
 20
1586.969411578275
 10
285.6291444924008
 20
1586.98305442523
 10
285.6126684958303
 20
1586.995633702136
 10
285.5954181638558
 20
1587.007099736187
 10
285.5774402157639
 20
1587.017402854582
 10
285.5587813708408
 20
1587.026493384512
 10
285.5394883483738
 20
1587.034321653174
 10
285.5196078676493
 20
1587.040837987762
 10
285.4991866479539
 20
1587.045992715473
 10
285.4782714085747
 20
1587.049736163501
 10
285.4569088687981
 20
1587.052018659042
 10
285.4351457479111
 20
1587.052790529289
 10
285.4133428498668
 20
1587.052018659042
 10
285.3919417003318
 20
1587.049736163501
 10
285.3709890652883
 20
1587.045992715473
 10
285.3505317107192
 20
1587.040837987762
 10
285.330616402607
 20
1587.034321653174
 10
285.3112899069345
 20
1587.026493384512
 10
285.2925989896843
 20
1587.017402854582
 10
285.274590416839
 20
1587.007099736187
 10
285.2573109543813
 20
1586.995633702136
 10
285.240807368294
 20
1586.98305442523
 10
285.2251264245594
 20
1586.969411578275
 10
285.2103148891607
 20
1586.954754834076
 10
285.1964195280801
 20
1586.939133865438
 10
285.1834871073003
 20
1586.922598345165
 10
285.1715643928041
 20
1586.905197946063
 10
285.1606981505742
 20
1586.886982340937
 10
285.1509351465931
 20
1586.86800120259
 10
285.1423221468435
 20
1586.848304203829
 10
285.1349059173082
 20
1586.827941017457
 10
285.1287332239697
 20
1586.80696131628
 10
285.1238508328106
 20
1586.785414773103
 10
285.1203055098139
 20
1586.76335106073
 10
285.1181440209616
 20
1586.740819851966
 10
285.1174131322371
 20
1586.717870819616
 10
285.1181440209616
 20
1586.694950802955
 10
285.1203055098139
 20
1586.672446193365
 10
285.1238508328106
 20
1586.650406768717
 10
285.1287332239697
 20
1586.628882306881
 10
285.1349059173082
 20
1586.607922585729
 10
285.1423221468435
 20
1586.587577383131
 10
285.1509351465931
 20
1586.567896476957
 10
285.1606981505742
 20
1586.548929645079
 10
285.1715643928041
 20
1586.530726665366
 10
285.1834871073003
 20
1586.513337315691
 10
285.1964195280801
 20
1586.496811373923
 10
285.2103148891607
 20
1586.481198617933
 10
285.2251264245594
 20
1586.466548825593
 10
285.240807368294
 20
1586.452911774771
 10
285.2573109543813
 20
1586.44033724334
 10
285.274590416839
 20
1586.42887500917
 10
285.2925989896843
 20
1586.418574850131
 10
285.3112899069345
 20
1586.409486544095
 10
285.330616402607
 20
1586.401659868932
 10
285.3505317107192
 20
1586.395144602513
 10
285.3709890652883
 20
1586.389990522708
 10
285.3919417003318
 20
1586.386247407389
 10
285.4133428498668
 20
1586.383965034425
 10
285.4351457479111
 20
1586.383193181689
 10
285.4569088687981
 20
1586.383965034425
 10
285.4782714085747
 20
1586.386247407389
 10
285.4991866479539
 20
1586.389990522708
 10
285.5196078676493
 20
1586.395144602513
 10
285.5394883483738
 20
1586.401659868932
 10
285.5587813708408
 20
1586.409486544095
 10
285.5774402157639
 20
1586.418574850131
 10
285.5954181638558
 20
1586.42887500917
 10
285.6126684958303
 20
1586.44033724334
 10
285.6291444924008
 20
1586.452911774771
 10
285.6447994342799
 20
1586.466548825593
 10
285.6595866021814
 20
1586.481198617933
 10
285.6734592768183
 20
1586.496811373923
 10
285.6863707389043
 20
1586.513337315691
 10
285.6982742691522
 20
1586.530726665366
 10
285.7091231482757
 20
1586.548929645079
 10
285.7188706569877
 20
1586.567896476957
 10
285.7274700760017
 20
1586.587577383131
 10
285.7348746860311
 20
1586.607922585729
 10
285.7410377677888
 20
1586.628882306881
 10
285.7459126019884
 20
1586.650406768717
 10
285.7494524693432
 20
1586.672446193365
 10
285.7516106505662
 20
1586.694950802955
  0
LWPOLYLINE
  5
8F
330
82
100
AcDbEntity
  8
LAYER_1
 62
     7
100
AcDbPolyline
 90
      144
 70
     1
 43
0.0
 10
280.8554280320222
 20
1587.009860449895
 10
281.0303419868007
 20
1587.009388330607
 10
281.2047680390633
 20
1587.007974120754
 10
281.3786794553848
 20
1587.005621042357
 10
281.5520495023405
 20
1587.002332317434
 10
281.7248514465054
 20
1586.998111168007
 10
281.8970585544546
 20
1586.992960816095
 10
282.0686440927631
 20
1586.986884483717
 10
282.2395813280058
 20
1586.979885392894
 10
282.4098435267582
 20
1586.971966765645
 10
282.5794039555948
 20
1586.963131823991
 10
282.7482358810914
 20
1586.953383789949
 10
282.9163125698224
 20
1586.94272588554
 10
283.0836072883631
 20
1586.931161332786
 10
283.2500933032887
 20
1586.918693353705
 10
283.4157438811741
 20
1586.905325170316
 10
283.5805322885944
 20
1586.89106000464
 10
283.7444317921248
 20
1586.875901078696
 10
283.9074156583401
 20
1586.859851614504
 10
284.0694571538156
 20
1586.842914834084
 10
284.2305295451263
 20
1586.825093959456
 10
284.3906060988473
 20
1586.806392212639
 10
284.5496600815535
 20
1586.786812815654
 10
284.7076647598202
 20
1586.766358990519
 10
284.8645934002222
 20
1586.745033959256
 10
284.8650375603175
 20
1586.754878869859
 10
284.865629583103
 20
1586.764658254387
 10
284.8663682778322
 20
1586.774372708211
 10
284.8672524537583
 20
1586.784022826705
 10
284.8682809201354
 20
1586.793609205244
 10
284.8694524862166
 20
1586.803132439199
 10
284.8707659612555
 20
1586.812593123945
 10
284.8722201545061
 20
1586.821991854853
 10
284.8738138752215
 20
1586.831329227298
 10
284.8755459326556
 20
1586.840605836653
 10
284.8774151360617
 20
1586.849822278291
 10
284.8794202946937
 20
1586.858979147585
 10
284.8815602178046
 20
1586.868077039908
 10
284.8838337146485
 20
1586.877116550633
 10
284.8862395944786
 20
1586.886098275135
 10
284.8887766665487
 20
1586.895022808786
 10
284.8914437401123
 20
1586.903890746958
 10
284.8942396244229
 20
1586.912702685026
 10
284.8971631287341
 20
1586.921459218364
 10
284.9002130622995
 20
1586.930160942343
 10
284.9033882343725
 20
1586.938808452337
 10
284.9066874542069
 20
1586.947402343719
 10
284.9101095310562
 20
1586.955943211862
 10
284.9136532741738
 20
1586.964431652141
 10
284.7548136491744
 20
1586.986016914034
 10
284.594882296475
 20
1587.006732896005
 10
284.4338865098518
 20
1587.026575220312
 10
284.271853583081
 20
1587.045539509207
 10
284.108810809939
 20
1587.063621384948
 10
283.9447854842017
 20
1587.08081646979
 10
283.7798048996453
 20
1587.097120385989
 10
283.6138963500464
 20
1587.112528755801
 10
283.4470871291809
 20
1587.127037201481
 10
283.2794045308248
 20
1587.140641345285
 10
283.1108758487547
 20
1587.153336809469
 10
282.9415283767465
 20
1587.165119216289
 10
282.7713894085765
 20
1587.175984187999
 10
282.6004862380211
 20
1587.185927346857
 10
282.4288461588562
 20
1587.19494431512
 10
282.2564964648581
 20
1587.20303071504
 10
282.0834644498029
 20
1587.210182168874
 10
281.909777407467
 20
1587.216394298878
 10
281.7354626316267
 20
1587.221662727309
 10
281.5605474160578
 20
1587.225983076421
 10
281.3850590545367
 20
1587.22935096847
 10
281.2090248408395
 20
1587.231762025712
 10
281.0324720687427
 20
1587.233211870404
 10
280.8554280320222
 20
1587.233696124799
 10
280.677102917516
 20
1587.233202430042
 10
280.4992571718426
 20
1587.2317246067
 10
280.3219207621214
 20
1587.229267546175
 10
280.1451236554707
 20
1587.225836139867
 10
279.9688958190093
 20
1587.221435279174
 10
279.7932672198557
 20
1587.216069855496
 10
279.6182678251289
 20
1587.209744760233
 10
279.4439276019476
 20
1587.202464884785
 10
279.2702765174301
 20
1587.19423512055
 10
279.0973445386956
 20
1587.185060358929
 10
278.9251616328622
 20
1587.174945491321
 10
278.7537577670491
 20
1587.163895409126
 10
278.583162908375
 20
1587.151915003744
 10
278.4134070239581
 20
1587.139009166573
 10
278.2445200809176
 20
1587.125182789013
 10
278.0765320463719
 20
1587.110440762464
 10
277.9094728874398
 20
1587.094787978327
 10
277.7433725712401
 20
1587.078229327999
 10
277.5782610648912
 20
1587.060769702882
 10
277.414168335512
 20
1587.042413994374
 10
277.2511243502212
 20
1587.023167093874
 10
277.0891590761373
 20
1587.003033892784
 10
276.9283024803793
 20
1586.982019282501
 10
276.7685845300657
 20
1586.960128154426
 10
276.7719882359543
 20
1586.951752045119
 10
276.7752728205032
 20
1586.943294813294
 10
276.7784373964895
 20
1586.934759108942
 10
276.7814810766903
 20
1586.92614758206
 10
276.784402973883
 20
1586.917462882642
 10
276.7872022008446
 20
1586.908707660683
 10
276.7898778703523
 20
1586.899884566177
 10
276.7924290951831
 20
1586.890996249118
 10
276.7948549881144
 20
1586.882045359502
 10
276.7971546619232
 20
1586.873034547321
 10
276.7993272293868
 20
1586.863966462572
 10
276.8013718032821
 20
1586.854843755249
 10
276.8032874963867
 20
1586.845669075346
 10
276.8050734214773
 20
1586.836445072857
 10
276.8067286913315
 20
1586.827174397778
 10
276.808252418726
 20
1586.817859700103
 10
276.8096437164384
 20
1586.808503629826
 10
276.8109016972457
 20
1586.799108836941
 10
276.8120254739249
 20
1586.789677971444
 10
276.8130141592535
 20
1586.780213683329
 10
276.8138668660082
 20
1586.77071862259
 10
276.8145827069666
 20
1586.761195439221
 10
276.8151607949056
 20
1586.75164678322
 10
276.8156002426025
 20
1586.742075304577
 10
276.9735471112972
 20
1586.763483248371
 10
277.1326141455182
 20
1586.784036679834
 10
277.2927716699969
 20
1586.803730579153
 10
277.4539900094641
 20
1586.822559926514
 10
277.6162394886508
 20
1586.840519702103
 10
277.7794904322877
 20
1586.857604886107
 10
277.9437131651061
 20
1586.873810458713
 10
278.1088780118367
 20
1586.889131400108
 10
278.2749552972104
 20
1586.903562690478
 10
278.4419153459581
 20
1586.917099310008
 10
278.609728482811
 20
1586.929736238889
 10
278.7783650324996
 20
1586.941468457302
 10
278.9477953197551
 20
1586.952290945437
 10
279.1179896693083
 20
1586.962198683481
 10
279.2889184058903
 20
1586.971186651619
 10
279.460551854232
 20
1586.979249830037
 10
279.6328603390641
 20
1586.986383198924
 10
279.8058141851178
 20
1586.992581738464
 10
279.9793837171238
 20
1586.997840428846
 10
280.1535392598131
 20
1587.002154250255
 10
280.3282511379166
 20
1587.005518182878
 10
280.5034896761655
 20
1587.0079272069
 10
280.6792251992903
 20
1587.009376302512
  0
LWPOLYLINE
  5
90
330
82
100
AcDbEntity
  8
LAYER_1
 62
     7
100
AcDbPolyline
 90
       25
 70
     0
 43
0.0
 10
275.6724352476934
 20
1586.717884268046
 10
275.6724446238487
 20
1586.720531956958
 10
275.6724721530504
 20
1586.723170295008
 10
275.6725169364013
 20
1586.725800297833
 10
275.6725780750047
 20
1586.72842298107
 10
275.672654669964
 20
1586.731039360355
 10
275.6727458223821
 20
1586.733650451326
 10
275.6728506333621
 20
1586.736257269617
 10
275.6729682040077
 20
1586.738860830867
 10
275.6730976354215
 20
1586.741462150712
 10
275.6732380287071
 20
1586.744062244788
 10
275.6733884849674
 20
1586.746662128733
 10
275.6735481053056
 20
1586.749262818182
 10
275.6737159908251
 20
1586.751865328774
 10
275.6738912426289
 20
1586.754470676143
 10
275.6740729618203
 20
1586.757079875928
 10
275.6742602495023
 20
1586.759693943764
 10
275.6744522067783
 20
1586.762313895289
 10
275.6746479347511
 20
1586.764940746138
 10
275.6748465345242
 20
1586.767575511949
 10
275.6750471072008
 20
1586.770219208358
 10
275.6752487538839
 20
1586.772872851002
 10
275.6754505756769
 20
1586.775537455518
 10
275.6756516736828
 20
1586.778214037542
 10
275.6758511490048
 20
1586.780903612711
  0
LWPOLYLINE
  5
91
330
82
100
AcDbEntity
  8
LAYER_1
 62
     7
100
AcDbPolyline
 90
      457
 70
     0
 43
0.0
 10
275.6758511490048
 20
1586.780903612711
 10
275.5805236781511
 20
1586.762535325485
 10
275.4857428299562
 20
1586.743828749529
 10
275.3915164493382
 20
1586.724784048282
 10
275.2978523812144
 20
1586.705401385178
 10
275.2047584705028
 20
1586.685680923652
 10
275.1122425621212
 20
1586.665622827142
 10
275.020312500987
 20
1586.645227259083
 10
274.928976132018
 20
1586.62449438291
 10
274.838241300132
 20
1586.603424362059
 10
274.7481158502467
 20
1586.582017359966
 10
274.6586076272797
 20
1586.560273540067
 10
274.569724476149
 20
1586.538193065798
 10
274.4814742417718
 20
1586.515776100593
 10
274.3938647690663
 20
1586.49302280789
 10
274.3069039029499
 20
1586.469933351124
 10
274.2205994883406
 20
1586.446507893731
 10
274.1349593701557
 20
1586.422746599146
 10
274.0499913933133
 20
1586.398649630806
 10
273.9657034027309
 20
1586.374217152146
 10
273.8821032433262
 20
1586.349449326601
 10
273.799198760017
 20
1586.324346317609
 10
273.7169977977211
 20
1586.298908288603
 10
273.635508201356
 20
1586.273135403022
 10
273.5547378158395
 20
1586.247027824298
 10
273.310603558395
 20
1586.164912918726
 10
273.0758840544032
 20
1586.080447316249
 10
272.8506658898084
 20
1585.993702158131
 10
272.635035650555
 20
1585.904748585633
 10
272.4290799225873
 20
1585.813657740018
 10
272.2328852918499
 20
1585.72050076255
 10
272.0465383442872
 20
1585.625348794491
 10
271.8701256658436
 20
1585.528272977103
 10
271.7037338424634
 20
1585.42934445165
 10
271.5474494600912
 20
1585.328634359393
 10
271.4013591046714
 20
1585.226213841597
 10
271.2655493621485
 20
1585.122154039521
 10
271.1401068184667
 20
1585.016526094431
 10
271.0251180595705
 20
1584.909401147589
 10
270.9206696714045
 20
1584.800850340257
 10
270.8268482399129
 20
1584.690944813698
 10
270.7437403510401
 20
1584.579755709175
 10
270.6714325907308
 20
1584.46735416795
 10
270.6100115449291
 20
1584.353811331286
 10
270.5595637995797
 20
1584.239198340447
 10
270.520175940627
 20
1584.123586336693
 10
270.4919345540153
 20
1584.007046461288
 10
270.474926225689
 20
1583.889649855496
 10
270.4692375415925
 20
1583.771467660577
 10
270.474926225689
 20
1583.653330079737
 10
270.4919345540153
 20
1583.535973441776
 10
270.520175940627
 20
1583.419469284873
 10
270.5595637995797
 20
1583.303889147208
 10
270.6100115449291
 20
1583.189304566954
 10
270.6714325907308
 20
1583.075787082294
 10
270.7437403510401
 20
1582.963408231404
 10
270.8268482399129
 20
1582.852239552463
 10
270.9206696714045
 20
1582.742352583649
 10
271.0251180595705
 20
1582.633818863139
 10
271.1401068184667
 20
1582.526709929112
 10
271.2655493621485
 20
1582.421097319747
 10
271.4013591046714
 20
1582.317052573221
 10
271.5474494600912
 20
1582.214647227712
 10
271.7037338424634
 20
1582.1139528214
 10
271.8701256658436
 20
1582.015040892461
 10
272.0465383442872
 20
1581.917982979075
 10
272.2328852918499
 20
1581.822850619418
 10
272.4290799225873
 20
1581.72971535167
 10
272.635035650555
 20
1581.638648714009
 10
272.8506658898084
 20
1581.549722244613
 10
273.0758840544032
 20
1581.463007481659
 10
273.310603558395
 20
1581.378575963326
 10
273.5547378158395
 20
1581.296499227792
 10
273.8019723625823
 20
1581.218410782658
 10
274.0556823518911
 20
1581.143332859718
 10
274.3156601969703
 20
1581.07129323138
 10
274.581698311024
 20
1581.002319670055
 10
274.8535891072569
 20
1580.936439948152
 10
275.1311249988729
 20
1580.873681838079
 10
275.4140983990764
 20
1580.814073112248
 10
275.702301721072
 20
1580.757641543066
 10
275.9955273780635
 20
1580.704414902946
 10
276.2935677832556
 20
1580.654420964294
 10
276.5962153498523
 20
1580.607687499522
 10
276.9032624910582
 20
1580.564242281039
 10
277.2145016200771
 20
1580.524113081254
 10
277.5297251501139
 20
1580.487327672577
 10
277.8487254943725
 20
1580.453913827417
 10
278.1712950660573
 20
1580.423899318184
 10
278.4972262783727
 20
1580.397311917288
 10
278.8263115445227
 20
1580.374179397139
 10
279.1583432777119
 20
1580.354529530144
 10
279.4931138911445
 20
1580.338390088715
 10
279.8304157980248
 20
1580.325788845262
 10
280.1700414115569
 20
1580.316753572192
 10
280.5117831449454
 20
1580.311312041917
 10
280.8554334113944
 20
1580.309492026846
 10
281.1990769224976
 20
1580.311312041917
 10
281.5408055498926
 20
1580.316753572192
 10
281.8804123605267
 20
1580.325788845262
 10
282.2176904213475
 20
1580.338390088715
 10
282.5524327993025
 20
1580.354529530144
 10
282.8844325613391
 20
1580.374179397139
 10
283.2134827744044
 20
1580.397311917288
 10
283.5393765054464
 20
1580.423899318184
 10
283.8619068214119
 20
1580.453913827417
 10
284.1808667892487
 20
1580.487327672577
 10
284.4960494759043
 20
1580.524113081254
 10
284.8072479483262
 20
1580.564242281039
 10
285.1142552734615
 20
1580.607687499522
 10
285.4168645182578
 20
1580.654420964294
 10
285.7148687496626
 20
1580.704414902946
 10
286.0080610346233
 20
1580.757641543066
 10
286.2962344400875
 20
1580.814073112248
 10
286.5791820330023
 20
1580.873681838079
 10
286.8566968803151
 20
1580.936439948152
 10
287.1285720489739
 20
1581.002319670055
 10
287.3946006059254
 20
1581.07129323138
 10
287.6545756181176
 20
1581.143332859718
 10
287.9082901524979
 20
1581.218410782658
 10
288.1555372760135
 20
1581.296499227792
 10
288.3997023197011
 20
1581.378575963326
 10
288.6344535321811
 20
1581.463007481659
 10
288.859704129051
 20
1581.549722244613
 10
289.0753673259089
 20
1581.638648714009
 10
289.2813563383526
 20
1581.72971535167
 10
289.4775843819799
 20
1581.822850619418
 10
289.6639646723885
 20
1581.917982979075
 10
289.8404104251765
 20
1582.015040892461
 10
290.0068348559415
 20
1582.1139528214
 10
290.1631511802813
 20
1582.214647227712
 10
290.3092726137941
 20
1582.317052573221
 10
290.4451123720773
 20
1582.421097319747
 10
290.5705836707292
 20
1582.526709929112
 10
290.6855997253471
 20
1582.633818863139
 10
290.7900737515292
 20
1582.742352583649
 10
290.8839189648733
 20
1582.852239552463
 10
290.967048580977
 20
1582.963408231404
 10
291.0393758154386
 20
1583.075787082294
 10
291.1008138838555
 20
1583.189304566954
 10
291.1512760018256
 20
1583.303889147208
 10
291.190675384947
 20
1583.419469284873
 10
291.2189252488174
 20
1583.535973441776
 10
291.2359388090346
 20
1583.653330079737
 10
291.2416292811963
 20
1583.771467660577
 10
291.2359388090346
 20
1583.889649855496
 10
291.2189252488174
 20
1584.007046461288
 10
291.190675384947
 20
1584.123586336693
 10
291.1512760018256
 20
1584.239198340447
 10
291.1008138838555
 20
1584.353811331286
 10
291.0393758154386
 20
1584.46735416795
 10
290.967048580977
 20
1584.579755709175
 10
290.8839189648733
 20
1584.690944813698
 10
290.7900737515292
 20
1584.800850340257
 10
290.6855997253471
 20
1584.909401147589
 10
290.5705836707292
 20
1585.016526094431
 10
290.4451123720773
 20
1585.122154039521
 10
290.3092726137941
 20
1585.226213841597
 10
290.1631511802813
 20
1585.328634359393
 10
290.0068348559415
 20
1585.42934445165
 10
289.8404104251765
 20
1585.528272977103
 10
289.6639646723885
 20
1585.625348794491
 10
289.4775843819799
 20
1585.72050076255
 10
289.2813563383526
 20
1585.813657740018
 10
289.0753673259089
 20
1585.904748585633
 10
288.859704129051
 20
1585.993702158131
 10
288.6344535321811
 20
1586.080447316249
 10
288.3997023197011
 20
1586.164912918726
 10
288.1555372760135
 20
1586.247027824298
 10
288.0737354083407
 20
1586.273332516307
 10
287.9911887404448
 20
1586.299319103907
 10
287.9079050238518
 20
1586.324985800979
 10
287.8238920100874
 20
1586.350330821402
 10
287.7391574506773
 20
1586.375352379059
 10
287.6537090971478
 20
1586.400048687827
 10
287.5675547010242
 20
1586.424417961588
 10
287.4807020138327
 20
1586.448458414223
 10
287.3931587870988
 20
1586.472168259612
 10
287.3049327723487
 20
1586.495545711634
 10
287.2160317211079
 20
1586.518588984171
 10
287.1264633849023
 20
1586.541296291103
 10
287.0362355152582
 20
1586.563665846309
 10
286.9453558637007
 20
1586.585695863671
 10
286.8538321817561
 20
1586.607384557069
 10
286.7616722209502
 20
1586.628730140383
 10
286.6688837328087
 20
1586.649730827493
 10
286.5754744688574
 20
1586.67038483228
 10
286.4814521806223
 20
1586.690690368624
 10
286.3868246196291
 20
1586.710645650405
 10
286.2915995374036
 20
1586.730248891504
 10
286.1957846854719
 20
1586.749498305802
 10
286.0993878153595
 20
1586.768392107177
 10
286.0024166785925
 20
1586.786928509511
 10
286.002826666989
 20
1586.784118209776
 10
286.003203582987
 20
1586.781308201889
 10
286.0035488157905
 20
1586.778497657
 10
286.0038637546037
 20
1586.775685746254
 10
286.0041497886308
 20
1586.772871640799
 10
286.004408307076
 20
1586.770054511781
 10
286.0046406991436
 20
1586.76723353035
 10
286.0048483540373
 20
1586.76440786765
 10
286.0050326609621
 20
1586.76157669483
 10
286.0051950091215
 20
1586.758739183035
 10
286.0053367877198
 20
1586.755894503414
 10
286.0054593859613
 20
1586.753041827113
 10
286.0055641930502
 20
1586.750180325281
 10
286.0056525981905
 20
1586.747309169062
 10
286.0057259905866
 20
1586.744427529606
 10
286.0057857594426
 20
1586.741534578058
 10
286.0058332939625
 20
1586.738629485567
 10
286.0058699833507
 20
1586.735711423278
 10
286.0058972168114
 20
1586.732779562339
 10
286.0059163835485
 20
1586.729833073898
 10
286.0059288727666
 20
1586.726871129101
 10
286.0059360736694
 20
1586.723892899095
 10
286.0059393754614
 20
1586.720897555028
 10
286.0059401673467
 20
1586.717884268046
 10
286.0059059119842
 20
1586.711269675474
 10
286.0058034105074
 20
1586.704660009323
 10
286.0056330598314
 20
1586.698056553732
 10
286.0053952568721
 20
1586.69146059284
 10
286.0050903985447
 20
1586.684873410783
 10
286.0047188817646
 20
1586.678296291702
 10
286.0042811034475
 20
1586.671730519734
 10
286.0037774605089
 20
1586.665177379017
 10
286.003208349864
 20
1586.65863815369
 10
286.0025741684286
 20
1586.652114127891
 10
286.0018753131178
 20
1586.645606585758
 10
286.0011121808477
 20
1586.63911681143
 10
286.0002851685329
 20
1586.632646089045
 10
285.9993946730899
 20
1586.626195702741
 10
285.9984410914334
 20
1586.619766936658
 10
285.9974248204791
 20
1586.613361074931
 10
285.9963462571425
 20
1586.606979401702
 10
285.9952057983391
 20
1586.600623201107
 10
285.9940038409843
 20
1586.594293757285
 10
285.9927407819937
 20
1586.587992354373
 10
285.9914170182828
 20
1586.581720276512
 10
285.9900329467672
 20
1586.575478807838
 10
285.9885889643617
 20
1586.569269232491
 10
285.9870854679826
 20
1586.563092834608
 10
286.0818419992673
 20
1586.544853881512
 10
286.1760466545998
 20
1586.526286083941
 10
286.2696919392822
 20
1586.507388963262
 10
286.3627703586161
 20
1586.488162040842
 10
286.4552744179034
 20
1586.468604838047
 10
286.5471966224459
 20
1586.448716876244
 10
286.6385294775454
 20
1586.4284976768
 10
286.729265488504
 20
1586.40794676108
 10
286.819397160623
 20
1586.387063650453
 10
286.9089169992049
 20
1586.365847866283
 10
286.9978175095509
 20
1586.344298929939
 10
287.0860911969631
 20
1586.322416362786
 10
287.1737305667435
 20
1586.300199686192
 10
287.2607281241937
 20
1586.277648421523
 10
287.3470763746157
 20
1586.254762090144
 10
287.4327678233111
 20
1586.231540213425
 10
287.5177949755821
 20
1586.20798231273
 10
287.6021503367301
 20
1586.184087909425
 10
287.6858264120569
 20
1586.15985652488
 10
287.768815706865
 20
1586.135287680459
 10
287.8511107264555
 20
1586.110380897529
 10
287.9327039761307
 20
1586.085135697457
 10
288.0135879611921
 20
1586.05955160161
 10
288.0937551869417
 20
1586.033628131353
 10
288.3229104729163
 20
1585.956551120253
 10
288.5436437377481
 20
1585.877301942496
 10
288.7558368056901
 20
1585.795973091063
 10
288.9593715009953
 20
1585.712657058935
 10
289.1541296479172
 20
1585.627446339092
 10
289.3399930707082
 20
1585.540433424515
 10
289.5168435936214
 20
1585.451710808185
 10
289.68456304091
 20
1585.361370983081
 10
289.8430332368271
 20
1585.269506442186
 10
289.9921360056254
 20
1585.17620967848
 10
290.1317531715582
 20
1585.081573184942
 10
290.2617665588783
 20
1584.985689454556
 10
290.3820579918388
 20
1584.8886509803
 10
290.4925092946928
 20
1584.790550255154
 10
290.5930022916932
 20
1584.691479772101
 10
290.6834188070933
 20
1584.591532024121
 10
290.7636406651454
 20
1584.490799504194
 10
290.8335496901034
 20
1584.389374705301
 10
290.8930277062195
 20
1584.287350120423
 10
290.9419565377474
 20
1584.18481824254
 10
290.9802180089397
 20
1584.081871564634
 10
291.0076939440495
 20
1583.978602579684
 10
291.0242661673298
 20
1583.875103780671
 10
291.0298165030337
 20
1583.771467660577
 10
291.0242661673298
 20
1583.667848290705
 10
291.0076939440495
 20
1583.564365880022
 10
290.9802180089397
 20
1583.461112559614
 10
290.9419565377474
 20
1583.358180460568
 10
290.8930277062195
 20
1583.255661713973
 10
290.8335496901034
 20
1583.153648450915
 10
290.7636406651454
 20
1583.05223280248
 10
290.6834188070933
 20
1582.951506899757
 10
290.5930022916932
 20
1582.851562873832
 10
290.4925092946928
 20
1582.752492855792
 10
290.3820579918388
 20
1582.654388976726
 10
290.2617665588783
 20
1582.55734336772
 10
290.1317531715582
 20
1582.46144815986
 10
289.9921360056254
 20
1582.366795484234
 10
289.8430332368271
 20
1582.273477471929
 10
289.68456304091
 20
1582.181586254034
 10
289.5168435936214
 20
1582.091213961633
 10
289.3399930707082
 20
1582.002452725816
 10
289.1541296479172
 20
1581.915394677668
 10
288.9593715009953
 20
1581.830131948278
 10
288.7558368056901
 20
1581.746756668732
 10
288.5436437377481
 20
1581.665360970117
 10
288.3229104729163
 20
1581.58603698352
 10
288.0937551869417
 20
1581.50887684003
 10
287.8488820596587
 20
1581.431680112217
 10
287.5975682666096
 20
1581.357461476267
 10
287.3400194683833
 20
1581.286248214283
 10
287.0764413255678
 20
1581.218067608368
 10
286.8070394987512
 20
1581.152946940623
 10
286.5320196485217
 20
1581.090913493149
 10
286.2515874354676
 20
1581.031994548051
 10
285.9659485201777
 20
1580.97621738743
 10
285.6753085632392
 20
1580.923609293388
 10
285.3798732252412
 20
1580.874197548026
 10
285.0798481667714
 20
1580.828009433449
 10
284.7754390484183
 20
1580.785072231757
 10
284.4668515307701
 20
1580.745413225053
 10
284.1542912744149
 20
1580.70905969544
 10
283.837963939941
 20
1580.676038925019
 10
283.5180751879367
 20
1580.646378195892
 10
283.1948306789903
 20
1580.620104790162
 10
282.8684360736897
 20
1580.597245989931
 10
282.5390970326237
 20
1580.577829077302
 10
282.2070192163798
 20
1580.561881334376
 10
281.8724082855469
 20
1580.549430043255
 10
281.5354699007128
 20
1580.540502486042
 10
281.1964097224659
 20
1580.53512594484
 10
280.8554334113944
 20
1580.53332770175
 10
280.5143888989587
 20
1580.53512594484
 10
280.1752654107472
 20
1580.540502486042
 10
279.8382687357619
 20
1580.549430043255
 10
279.503604663005
 20
1580.561881334376
 10
279.1714789814782
 20
1580.577829077302
 10
278.8420974801842
 20
1580.597245989931
 10
278.5156659481244
 20
1580.620104790162
 10
278.1923901743012
 20
1580.646378195892
 10
277.8724759477167
 20
1580.676038925019
 10
277.5561290573729
 20
1580.70905969544
 10
277.2435552922718
 20
1580.745413225053
 10
276.9349604414155
 20
1580.785072231757
 10
276.6305502938061
 20
1580.828009433449
 10
276.3305306384456
 20
1580.874197548026
 10
276.0351072643361
 20
1580.923609293388
 10
275.7444859604797
 20
1580.97621738743
 10
275.4588725158783
 20
1581.031994548051
 10
275.1784727195342
 20
1581.090913493149
 10
274.9034923604494
 20
1581.152946940623
 10
274.6341372276258
 20
1581.218067608368
 10
274.3706131100657
 20
1581.286248214283
 10
274.113125796771
 20
1581.357461476267
 10
273.8618810767438
 20
1581.431680112217
 10
273.6170847389864
 20
1581.50887684003
 10
273.3879309064229
 20
1581.58603698352
 10
273.167195487741
 20
1581.665360970117
 10
272.954996973885
 20
1581.746756668732
 10
272.7514538557998
 20
1581.830131948278
 10
272.5566846244296
 20
1581.915394677668
 10
272.3708077707192
 20
1582.002452725816
 10
272.1939417856134
 20
1582.091213961633
 10
272.0262051600561
 20
1582.181586254034
 10
271.8677163849925
 20
1582.273477471929
 10
271.7185939513669
 20
1582.366795484234
 10
271.5789563501239
 20
1582.46144815986
 10
271.4489220722082
 20
1582.55734336772
 10
271.3286096085641
 20
1582.654388976726
 10
271.2181374501366
 20
1582.752492855792
 10
271.1176240878699
 20
1582.851562873832
 10
271.0271880127085
 20
1582.951506899757
 10
270.9469477155975
 20
1583.05223280248
 10
270.877021687481
 20
1583.153648450915
 10
270.8175284193038
 20
1583.255661713973
 10
270.7685864020102
 20
1583.358180460568
 10
270.7303141265451
 20
1583.461112559614
 10
270.7028300838529
 20
1583.564365880022
 10
270.6862527648783
 20
1583.667848290705
 10
270.6807006605658
 20
1583.771467660577
 10
270.6862527648783
 20
1583.875103780671
 10
270.7028300838529
 20
1583.978602579684
 10
270.7303141265451
 20
1584.081871564634
 10
270.7685864020102
 20
1584.18481824254
 10
270.8175284193038
 20
1584.287350120423
 10
270.877021687481
 20
1584.389374705301
 10
270.9469477155975
 20
1584.490799504194
 10
271.0271880127085
 20
1584.591532024121
 10
271.1176240878699
 20
1584.691479772101
 10
271.2181374501366
 20
1584.790550255154
 10
271.3286096085641
 20
1584.8886509803
 10
271.4489220722082
 20
1584.985689454556
 10
271.5789563501239
 20
1585.081573184942
 10
271.7185939513669
 20
1585.17620967848
 10
271.8677163849925
 20
1585.269506442186
 10
272.0262051600561
 20
1585.361370983081
 10
272.1939417856134
 20
1585.451710808185
 10
272.3708077707192
 20
1585.540433424515
 10
272.5566846244296
 20
1585.627446339092
 10
272.7514538557998
 20
1585.712657058935
 10
272.954996973885
 20
1585.795973091063
 10
273.1671954877409
 20
1585.877301942496
 10
273.3879309064229
 20
1585.956551120253
 10
273.6170847389864
 20
1586.033628131353
 10
273.6961726348077
 20
1586.059127536333
 10
273.7759638415106
 20
1586.08431911001
 10
273.8564511445724
 20
1586.109201533226
 10
273.9376273294705
 20
1586.133773486818
 10
274.0194851816826
 20
1586.158033651627
 10
274.102017486686
 20
1586.181980708493
 10
274.185217029958
 20
1586.205613338256
 10
274.2690765969764
 20
1586.228930221754
 10
274.3535889732186
 20
1586.25193003983
 10
274.4387469441617
 20
1586.27461147332
 10
274.5245432952836
 20
1586.296973203065
 10
274.6109708120616
 20
1586.319013909906
 10
274.6980222799731
 20
1586.340732274681
 10
274.7856904844955
 20
1586.362126978231
 10
274.8739682111066
 20
1586.383196701395
 10
274.9628482452835
 20
1586.403940125014
 10
275.0523233725039
 20
1586.424355929926
 10
275.1423863782452
 20
1586.444442796971
 10
275.2330300479848
 20
1586.464199406989
 10
275.3242471672001
 20
1586.483624440821
 10
275.4160305213686
 20
1586.502716579305
 10
275.508372895968
 20
1586.521474503282
 10
275.6012670764757
 20
1586.53989689359
 10
275.6947058483688
 20
1586.557982431072
 10
275.692975086747
 20
1586.564379906985
 10
275.6913069443792
 20
1586.570796668322
 10
275.6897024018799
 20
1586.577233228736
 10
275.688162439864
 20
1586.583690101884
 10
275.6866880389458
 20
1586.59016780142
 10
275.6852801797406
 20
1586.596666841
 10
275.6839398428628
 20
1586.60318773428
 10
275.6826680089271
 20
1586.609730994914
 10
275.6814656585482
 20
1586.61629713656
 10
275.6803337723408
 20
1586.622886672869
 10
275.6792733309198
 20
1586.629500117499
 10
275.6782853148999
 20
1586.636137984106
 10
275.6773707048955
 20
1586.642800786343
 10
275.6765304815217
 20
1586.649489037867
 10
275.675765625393
 20
1586.656203252334
 10
275.6750771171241
 20
1586.662943943396
 10
275.6744659373298
 20
1586.669711624713
 10
275.6739330666247
 20
1586.676506809937
 10
275.6734794856237
 20
1586.683330012724
 10
275.6731061749414
 20
1586.69018174673
 10
275.6728141151925
 20
1586.69706252561
 10
275.6726042869917
 20
1586.703972863019
 10
275.6724776709538
 20
1586.710913272613
 10
275.6724352476934
 20
1586.717884268046
  0
LWPOLYLINE
  5
92
330
82
100
AcDbEntity
  8
LAYER_1
 62
     7
100
AcDbPolyline
 90
       14
 70
     0
 43
0.0
 10
286.2866761511017
 20
1585.467387350438
 10
286.2866761511017
 20
1582.207998871642
 10
286.9055191225257
 20
1582.222200414102
 10
286.9055191225257
 20
1582.920738783836
 10
287.0752921073844
 20
1583.140486135911
 10
287.585902111275
 20
1582.222980423062
 10
288.3374810903474
 20
1582.222980423062
 10
287.5197896276276
 20
1583.557979207992
 10
288.2348157729829
 20
1584.464591692249
 10
287.5041356546891
 20
1584.464591692249
 10
286.9086929520906
 20
1583.524142957208
 10
286.9086929520906
 20
1585.467387350438
 10
286.2866761511017
 20
1585.467387350438
 10
286.2866761511017
 20
1585.467387350438
  0
LWPOLYLINE
  5
93
330
82
100
AcDbEntity
  8
LAYER_1
 62
     7
100
AcDbPolyline
 90
      192
 70
     1
 43
0.0
 10
280.8451990975209
 20
1584.529664698617
 10
280.797328720891
 20
1584.517084801045
 10
280.7516044896061
 20
1584.502841780917
 10
280.7079852878919
 20
1584.487070052495
 10
280.6664299999745
 20
1584.469904030037
 10
280.6268975100797
 20
1584.451478127805
 10
280.5893467024337
 20
1584.431926760057
 10
280.553736461262
 20
1584.411384341052
 10
280.5200256707909
 20
1584.389985285053
 10
280.4881732152461
 20
1584.367864006316
 10
280.4581379788537
 20
1584.345154919102
 10
280.4298788458395
 20
1584.32199243767
 10
280.4033547004296
 20
1584.29851097628
 10
280.3785244268498
 20
1584.274844949194
 10
280.355346909326
 20
1584.251128770669
 10
280.3337810320843
 20
1584.227496854965
 10
280.3137856793504
 20
1584.204083616342
 10
280.2953197353504
 20
1584.18102346906
 10
280.2673349507048
 20
1584.143015144334
 10
280.2416094906855
 20
1584.104513838909
 10
280.2180483640792
 20
1584.065646600761
 10
280.1965565796726
 20
1584.026540477863
 10
280.1770391462521
 20
1583.987322518192
 10
280.1594010726046
 20
1583.948119769723
 10
280.1435473675164
 20
1583.909059280432
 10
280.1293830397744
 20
1583.870268098293
 10
280.1168130981647
 20
1583.831873271282
 10
280.1057425514745
 20
1583.794001847375
 10
280.0960764084901
 20
1583.756780874547
 10
280.0877196779981
 20
1583.720337400772
 10
280.0805773687849
 20
1583.684798474027
 10
280.0745544896376
 20
1583.650291142287
 10
280.0695560493424
 20
1583.616942453527
 10
280.0654870566861
 20
1583.584879455723
 10
280.0622525204552
 20
1583.55422919685
 10
280.0597574494363
 20
1583.525118724882
 10
280.0579068524162
 20
1583.497675087797
 10
280.0566057381811
 20
1583.472025333569
 10
280.0557591155181
 20
1583.448296510172
 10
280.0552719932134
 20
1583.426615665583
 10
280.0550493800537
 20
1583.407109847778
 10
280.0549962848259
 20
1583.389906104731
 10
280.055879283625
 20
1583.333042302376
 10
280.0584639408025
 20
1583.278135188268
 10
280.0626537475263
 20
1583.225165932269
 10
280.0683521949653
 20
1583.174115704244
 10
280.0754627742879
 20
1583.124965674055
 10
280.0838889766628
 20
1583.077697011563
 10
280.0935342932585
 20
1583.032290886632
 10
280.1043022152439
 20
1582.988728469126
 10
280.1160962337872
 20
1582.946990928906
 10
280.1288198400571
 20
1582.907059435833
 10
280.1423765252224
 20
1582.868915159774
 10
280.1566697804514
 20
1582.832539270588
 10
280.1716030969127
 20
1582.797912938139
 10
280.1870799657753
 20
1582.76501733229
 10
280.2030038782073
 20
1582.733833622904
 10
280.2192783253776
 20
1582.704342979843
 10
280.2358067984546
 20
1582.67652657297
 10
280.2524927886071
 20
1582.650365572147
 10
280.2692397870035
 20
1582.625841147238
 10
280.2859512848125
 20
1582.602934468104
 10
280.3025307732027
 20
1582.58162670461
 10
280.3188817433426
 20
1582.561899026617
 10
280.3349076864008
 20
1582.543732603987
 10
280.350512093546
 20
1582.527108606585
 10
280.3867822923112
 20
1582.491323520253
 10
280.4242542577562
 20
1582.458304724681
 10
280.4627342017347
 20
1582.427941667233
 10
280.5020283361015
 20
1582.400123795275
 10
280.5419428727104
 20
1582.374740556172
 10
280.5822840234158
 20
1582.351681397287
 10
280.6228580000718
 20
1582.330835765987
 10
280.6634710145325
 20
1582.312093109637
 10
280.7039292786523
 20
1582.295342875601
 10
280.7440390042851
 20
1582.280474511245
 10
280.7836064032853
 20
1582.267377463933
 10
280.8224376875073
 20
1582.255941181031
 10
280.8603390688049
 20
1582.246055109903
 10
280.8971167590324
 20
1582.237608697915
 10
280.9325769700442
 20
1582.230491392431
 10
280.9665259136943
 20
1582.224592640818
 10
280.9987698018369
 20
1582.219801890438
 10
281.0291148463263
 20
1582.216008588659
 10
281.0573672590166
 20
1582.213102182844
 10
281.0833332517619
 20
1582.210972120359
 10
281.1068190364167
 20
1582.209507848568
 10
281.127630824835
 20
1582.208598814836
 10
281.145574828871
 20
1582.20813446653
 10
281.1604572603788
 20
1582.208004251014
 10
281.208103934277
 20
1582.208784771685
 10
281.2542292895129
 20
1582.211068422949
 10
281.2988442879578
 20
1582.214768338689
 10
281.3419598914835
 20
1582.219797652782
 10
281.3835870619616
 20
1582.226069499109
 10
281.4237367612637
 20
1582.233497011551
 10
281.4624199512616
 20
1582.241993323987
 10
281.4996475938266
 20
1582.251471570296
 10
281.5354306508306
 20
1582.261844884359
 10
281.569780084145
 20
1582.273026400057
 10
281.6027068556417
 20
1582.284929251269
 10
281.6342219271918
 20
1582.297466571874
 10
281.6643362606675
 20
1582.310551495752
 10
281.6930608179401
 20
1582.324097156784
 10
281.7204065608812
 20
1582.33801668885
 10
281.7463844513628
 20
1582.352223225829
 10
281.7710054512562
 20
1582.366629901603
 10
281.7942805224329
 20
1582.381149850049
 10
281.8162206267648
 20
1582.395696205049
 10
281.8368367261235
 20
1582.410182100482
 10
281.8561397823803
 20
1582.424520670228
 10
281.8741407574073
 20
1582.438625048168
 10
281.8908506130757
 20
1582.45240836818
 10
281.9062803112574
 20
1582.465783764145
 10
281.9244599352177
 20
1582.482698266711
 10
281.9433403251307
 20
1582.501314672809
 10
281.9627904054964
 20
1582.521654952877
 10
281.9826791008148
 20
1582.543741077355
 10
282.0028753355859
 20
1582.567595016681
 10
282.0232480343094
 20
1582.593238741297
 10
282.0436661214854
 20
1582.62069422164
 10
282.0639985216139
 20
1582.64998342815
 10
282.0841141591947
 20
1582.681128331265
 10
282.1038819587277
 20
1582.714150901426
 10
282.1231708447129
 20
1582.749073109071
 10
282.1418497416502
 20
1582.785916924639
 10
282.1597875740396
 20
1582.82470431857
 10
282.1768532663809
 20
1582.865457261302
 10
282.1929157431741
 20
1582.908197723276
 10
282.2078439289194
 20
1582.952947674929
 10
282.2215067481164
 20
1582.999729086702
 10
282.233773125265
 20
1583.048563929033
 10
282.2445119848653
 20
1583.099474172362
 10
282.2535922514174
 20
1583.152481787128
 10
282.2608828494209
 20
1583.20760874377
 10
282.2662527033758
 20
1583.264877012728
 10
282.2695707377823
 20
1583.324308564439
 10
282.2707058771399
 20
1583.385925369344
 10
282.2700650473702
 20
1583.43047689828
 10
282.2681394839116
 20
1583.474945261749
 10
282.2649245755402
 20
1583.519275592022
 10
282.2604157110323
 20
1583.563413021375
 10
282.2546082791637
 20
1583.607302682074
 10
282.2474976687104
 20
1583.650889706395
 10
282.2390792684486
 20
1583.69411922661
 10
282.2293484671543
 20
1583.736936374988
 10
282.2183006536034
 20
1583.779286283804
 10
282.2059312165724
 20
1583.821114085328
 10
282.1922355448368
 20
1583.862364911834
 10
282.1772090271728
 20
1583.902983895593
 10
282.1608470523568
 20
1583.942916168876
 10
282.1431450091644
 20
1583.982106863955
 10
282.1240982863719
 20
1584.020501113103
 10
282.1037022727552
 20
1584.058044048593
 10
282.0819523570907
 20
1584.094680802694
 10
282.0588439281539
 20
1584.130356507681
 10
282.0343723747211
 20
1584.165016295824
 10
282.0085330855685
 20
1584.198605299396
 10
281.981321449472
 20
1584.231068650668
 10
281.9527328552076
 20
1584.262351481912
 10
281.9227626915516
 20
1584.292398925401
 10
281.8914063472798
 20
1584.321156113407
 10
281.867186165868
 20
1584.341351011506
 10
281.8427372093784
 20
1584.36047074729
 10
281.8180579251708
 20
1584.378540408153
 10
281.7931467606054
 20
1584.395585081484
 10
281.7680021630422
 20
1584.411629854679
 10
281.7426225798414
 20
1584.426699815132
 10
281.7170064583627
 20
1584.440820050233
 10
281.6911522459663
 20
1584.454015647378
 10
281.6650583900122
 20
1584.466311693959
 10
281.6387233378606
 20
1584.477733277369
 10
281.6121455368715
 20
1584.488305485002
 10
281.5853234344045
 20
1584.498053404248
 10
281.5582554778202
 20
1584.507002122504
 10
281.5309401144786
 20
1584.51517672716
 10
281.5033757917394
 20
1584.522602305612
 10
281.4755609569627
 20
1584.529303945251
 10
281.4474940575087
 20
1584.535306733471
 10
281.4191735407375
 20
1584.540635757664
 10
281.3905978540089
 20
1584.545316105225
 10
281.361765444683
 20
1584.549372863545
 10
281.33267476012
 20
1584.552831120019
 10
281.3033242476798
 20
1584.555715962038
 10
281.2737123547224
 20
1584.558052476997
 10
281.243837528608
 20
1584.559865752288
 10
281.17979289289
 20
1584.562691311868
 10
281.17979289289
 20
1584.562691311868
 10
281.17979289289
 20
1584.562691311868
 10
281.0020982572203
 20
1584.556081513412
 10
280.9475427499114
 20
1584.549297469061
 10
280.8952567352698
 20
1584.540447059376
  0
LWPOLYLINE
  5
94
330
82
100
AcDbEntity
  8
LAYER_1
 62
     7
100
AcDbPolyline
 90
      167
 70
     0
 43
0.0
 10
281.1563131078107
 20
1584.044852417275
 10
281.2112468764241
 20
1584.041725872621
 10
281.228044668328
 20
1584.039927176191
 10
281.2441237280165
 20
1584.037779194139
 10
281.2595069014778
 20
1584.035300324666
 10
281.2742170347
 20
1584.03250896597
 10
281.2882769736711
 20
1584.029423516252
 10
281.3017095643791
 20
1584.026062373712
 10
281.3145376528119
 20
1584.022443936549
 10
281.3267840849579
 20
1584.018586602963
 10
281.3384717068047
 20
1584.014508771154
 10
281.3496233643406
 20
1584.010228839323
 10
281.3602619035536
 20
1584.005765205668
 10
281.3704101704317
 20
1584.001136268391
 10
281.3800910109628
 20
1583.996360425691
 10
281.3893272711352
 20
1583.991456075766
 10
281.3981417969367
 20
1583.986441616818
 10
281.4065574343555
 20
1583.981335447047
 10
281.4145970293795
 20
1583.97615596465
 10
281.4222834279969
 20
1583.970921567832
 10
281.4296394761954
 20
1583.965650654789
 10
281.4366880199635
 20
1583.960361623721
 10
281.4511824568621
 20
1583.948658177788
 10
281.465033715574
 20
1583.936095456538
 10
281.4782441425709
 20
1583.922635099257
 10
281.490816084323
 20
1583.908238745233
 10
281.5027518873017
 20
1583.89286803375
 10
281.5140538979776
 20
1583.876484604096
 10
281.5247244628221
 20
1583.859050095556
 10
281.5347659283054
 20
1583.840526147418
 10
281.5441806408991
 20
1583.820874398966
 10
281.5529709470737
 20
1583.800056489489
 10
281.5611391933003
 20
1583.778034058272
 10
281.5686877260498
 20
1583.754768744599
 10
281.5756188917932
 20
1583.730222187761
 10
281.5819350370011
 20
1583.704356027042
 10
281.587638508145
 20
1583.677131901727
 10
281.5927316516952
 20
1583.648511451104
 10
281.5972168141229
 20
1583.618456314459
 10
281.6010963418989
 20
1583.586928131078
 10
281.6043725814945
 20
1583.553888540248
 10
281.6070478793803
 20
1583.519299181255
 10
281.6091245820272
 20
1583.483121693385
 10
281.6106050359064
 20
1583.445317715924
 10
281.6114915874884
 20
1583.405848888159
 10
281.6117865832446
 20
1583.364676849376
 10
281.6112171048691
 20
1583.323306551312
 10
281.6094738423554
 20
1583.282372019747
 10
281.606504554622
 20
1583.241991021841
 10
281.6022570005873
 20
1583.20228132475
 10
281.5966789391698
 20
1583.163360695632
 10
281.589718129288
 20
1583.125346901644
 10
281.5813223298605
 20
1583.088357709944
 10
281.5714392998058
 20
1583.05251088769
 10
281.5600167980425
 20
1583.01792420204
 10
281.5470025834892
 20
1582.984715420149
 10
281.5323444150641
 20
1582.953002309177
 10
281.515990051686
 20
1582.922902636281
 10
281.4978872522734
 20
1582.894534168618
 10
281.4779837757446
 20
1582.868014673345
 10
281.4562273810185
 20
1582.843461917621
 10
281.4325658270133
 20
1582.820993668602
 10
281.4069468726476
 20
1582.800727693446
 10
281.3793182768401
 20
1582.782781759312
 10
281.3496277985091
 20
1582.767273633355
 10
281.3178231965734
 20
1582.754321082734
 10
281.2838522299511
 20
1582.744041874606
 10
281.247662657561
 20
1582.736553776131
 10
281.2092022383217
 20
1582.731974554462
 10
281.1684187311516
 20
1582.730421976761
 10
281.1403211310637
 20
1582.731139940438
 10
281.1133672079074
 20
1582.733234488717
 10
281.0875390304425
 20
1582.736616607462
 10
281.0628186674286
 20
1582.74119728254
 10
281.0391881876249
 20
1582.74688749982
 10
281.0166296597912
 20
1582.753598245168
 10
280.995125152687
 20
1582.761240504449
 10
280.9746567350717
 20
1582.769725263531
 10
280.9552064757048
 20
1582.77896350828
 10
280.936756443346
 20
1582.788866224565
 10
280.9192887067546
 20
1582.79934439825
 10
280.9027853346904
 20
1582.810309015204
 10
280.8872283959125
 20
1582.821671061291
 10
280.8725999591808
 20
1582.833341522381
 10
280.8588820932546
 20
1582.845231384338
 10
280.8460568668937
 20
1582.857251633031
 10
280.8341063488574
 20
1582.869313254325
 10
280.8230126079052
 20
1582.881327234088
 10
280.8127577127966
 20
1582.893204558186
 10
280.8033237322912
 20
1582.904856212486
 10
280.7946927351486
 20
1582.916193182855
 10
280.7868467901283
 20
1582.92712645516
 10
280.7797679659897
 20
1582.937567015266
 10
280.7734383314923
 20
1582.947425849042
 10
280.7685220818864
 20
1582.95650658839
 10
280.7637682874514
 20
1582.966531321162
 10
280.7591811041257
 20
1582.977484719416
 10
280.7547646878481
 20
1582.98935145521
 10
280.750523194557
 20
1583.002116200602
 10
280.7464607801911
 20
1583.01576362765
 10
280.7425816006888
 20
1583.030278408412
 10
280.7388898119886
 20
1583.045645214947
 10
280.7353895700293
 20
1583.061848719313
 10
280.7320850307493
 20
1583.078873593566
 10
280.7289803500871
 20
1583.096704509767
 10
280.7260796839814
 20
1583.115326139973
 10
280.7233871883704
 20
1583.134723156241
 10
280.7209070191929
 20
1583.154880230631
 10
280.7186433323876
 20
1583.175782035199
 10
280.7166002838929
 20
1583.197413242005
 10
280.7147820296472
 20
1583.219758523105
 10
280.7131927255892
 20
1583.24280255056
 10
280.7118365276575
 20
1583.266529996426
 10
280.7107175917906
 20
1583.290925532762
 10
280.709840073927
 20
1583.315973831626
 10
280.7092081300052
 20
1583.341659565075
 10
280.708825915964
 20
1583.367967405168
 10
280.7086975877415
 20
1583.394882023963
 10
280.7091524256416
 20
1583.435006618362
 10
280.7104977784415
 20
1583.473725221392
 10
280.7127049047911
 20
1583.511043366524
 10
280.7157450633399
 20
1583.546966587225
 10
280.7195895127379
 20
1583.581500416964
 10
280.7242095116344
 20
1583.614650389211
 10
280.7295763186794
 20
1583.646422037434
 10
280.7356611925225
 20
1583.676820895102
 10
280.7424353918133
 20
1583.705852495682
 10
280.7498701752016
 20
1583.733522372645
 10
280.7579368013372
 20
1583.759836059459
 10
280.7666065288697
 20
1583.784799089593
 10
280.7758506164489
 20
1583.808416996515
 10
280.7856403227241
 20
1583.830695313693
 10
280.7959469063455
 20
1583.851639574599
 10
280.8067416259627
 20
1583.871255312699
 10
280.8179957402252
 20
1583.889548061462
 10
280.8296805077828
 20
1583.906523354358
 10
280.8417671872852
 20
1583.922186724853
 10
280.8542270373821
 20
1583.936543706419
 10
280.8670313167232
 20
1583.949599832524
 10
280.8801512839583
 20
1583.961360636635
 10
280.893558197737
 20
1583.971831652222
 10
280.907223316709
 20
1583.981018412754
 10
280.9182703461571
 20
1583.987691149552
 10
280.9295453451781
 20
1583.993895315953
 10
280.9409994698203
 20
1583.99964732558
 10
280.9525838761315
 20
1584.004963592053
 10
280.9642497201601
 20
1584.009860528998
 10
280.9759481579537
 20
1584.014354550034
 10
280.9876303455606
 20
1584.018462068786
 10
280.9992474390291
 20
1584.022199498874
 10
281.0107505944069
 20
1584.025583253923
 10
281.0220909677423
 20
1584.028629747554
 10
281.0332197150832
 20
1584.03135539339
 10
281.0440879924778
 20
1584.033776605054
 10
281.0546469559741
 20
1584.035909796167
 10
281.0648477616204
 20
1584.037771380353
 10
281.0746415654644
 20
1584.039377771233
 10
281.0839795235542
 20
1584.04074538243
 10
281.0928127919384
 20
1584.041890627567
 10
281.1010925266643
 20
1584.042829920266
 10
281.1087698837805
 20
1584.04357967415
 10
281.1157960193349
 20
1584.044156302842
 10
281.1221220893756
 20
1584.044576219962
 10
281.1276992499506
 20
1584.044855839134
 10
281.132478657108
 20
1584.045011573981
 10
281.136411466896
 20
1584.045059838125
 10
281.1563126475411
 20
1584.044842266182
  0
ENDBLK
  5
95
330
82
100
AcDbEntity
  8
0
100
AcDbBlockEnd
  0
ENDSEC
  0
SECTION
  2
ENTITIES
  0
LINE
  5
2A
330
15
100
AcDbEntity
  8
0
100
AcDbLine
 10
326.8305513462841
 20
233.5713576922534
 30
0.0
 11
452.5494796926848
 21
233.5713576922535
 31
0.0
  0
LINE
  5
2B
330
15
100
AcDbEntity
  8
0
100
AcDbLine
 10
326.8305513462841
 20
343.5713576922534
 30
0.0
 11
452.5494796926848
 21
343.5713576922535
 31
0.0
  0
LINE
  5
2C
330
15
100
AcDbEntity
  8
0
 62
     1
100
AcDbLine
 10
380.5997950479488
 20
343.5713576922535
 30
0.0
 11
380.5997950479488
 21
340.2713576922535
 31
0.0
  0
LINE
  5
2D
330
15
100
AcDbEntity
  8
0
 62
     1
100
AcDbLine
 10
367.397077937644
 20
340.2713576922535
 30
0.0
 11
367.397077937644
 21
343.5713576922535
 31
0.0
  0
LINE
  5
2E
330
15
100
AcDbEntity
  8
0
 62
     1
100
AcDbLine
 10
367.397077937644
 20
340.2713576922535
 30
0.0
 11
380.5997950479488
 21
340.2713576922535
 31
0.0
  0
LINE
  5
2F
330
15
100
AcDbEntity
  8
0
 62
     1
100
AcDbLine
 10
380.5997950479488
 20
322.2713576922535
 30
0.0
 11
380.5997950479488
 21
318.9713576922535
 31
0.0
  0
LINE
  5
30
330
15
100
AcDbEntity
  8
0
 62
     1
100
AcDbLine
 10
380.5997950479488
 20
322.2713576922535
 30
0.0
 11
367.397077937644
 21
322.2713576922535
 31
0.0
  0
LINE
  5
31
330
15
100
AcDbEntity
  8
0
 62
     1
100
AcDbLine
 10
367.397077937644
 20
318.9713576922535
 30
0.0
 11
367.397077937644
 21
322.2713576922535
 31
0.0
  0
LINE
  5
32
330
15
100
AcDbEntity
  8
0
 62
     1
100
AcDbLine
 10
367.397077937644
 20
318.9713576922535
 30
0.0
 11
380.5997950479488
 21
318.9713576922535
 31
0.0
  0
LINE
  5
33
330
15
100
AcDbEntity
  8
0
 62
     1
100
AcDbLine
 10
380.5997950479488
 20
254.8713576922536
 30
0.0
 11
380.5997950479488
 21
258.1713576922537
 31
0.0
  0
LINE
  5
34
330
15
100
AcDbEntity
  8
0
 62
     1
100
AcDbLine
 10
380.5997950479488
 20
254.8713576922536
 30
0.0
 11
367.397077937644
 21
254.8713576922536
 31
0.0
  0
LINE
  5
35
330
15
100
AcDbEntity
  8
0
 62
     1
100
AcDbLine
 10
367.397077937644
 20
258.1713576922537
 30
0.0
 11
367.397077937644
 21
254.8713576922536
 31
0.0
  0
LINE
  5
36
330
15
100
AcDbEntity
  8
0
 62
     1
100
AcDbLine
 10
367.397077937644
 20
258.1713576922537
 30
0.0
 11
380.5997950479488
 21
258.1713576922537
 31
0.0
  0
CIRCLE
  5
37
330
15
100
AcDbEntity
  8
0
 62
     1
100
AcDbCircle
 10
323.853406187261
 20
259.2749916890489
 30
0.0
 40
1.5
  0
CIRCLE
  5
38
330
15
100
AcDbEntity
  8
0
 62
     1
100
AcDbCircle
 10
323.853406187261
 20
318.2749916890489
 30
0.0
 40
1.5
  0
CIRCLE
  5
39
330
15
100
AcDbEntity
  8
0
 62
     1
100
AcDbCircle
 10
356.853406187261
 20
259.2749916890489
 30
0.0
 40
1.5
  0
CIRCLE
  5
3A
330
15
100
AcDbEntity
  8
0
 62
     1
100
AcDbCircle
 10
356.853406187261
 20
318.2749916890489
 30
0.0
 40
1.5
  0
LWPOLYLINE
  5
3B
330
15
100
AcDbEntity
  8
0
 62
     1
100
AcDbPolyline
 90
        4
 70
     1
 43
0.0
 10
375.7282769840341
 20
294.9348808655661
 10
375.7282769840341
 20
282.7663003246017
 10
370.4290564258721
 20
282.7663003246017
 10
370.4290564258721
 20
294.9348808655661
  0
ARC
  5
3C
330
15
100
AcDbEntity
  8
0
100
AcDbCircle
 10
326.8305513462841
 20
323.5713576922535
 30
0.0
 40
20.0
100
AcDbArc
 50
90.0
 51
180.0
  0
ARC
  5
3D
330
15
100
AcDbEntity
  8
0
100
AcDbCircle
 10
326.8305513462841
 20
253.5713576922537
 30
0.0
 40
20.0
100
AcDbArc
 50
180.0
 51
270.0
  0
LINE
  5
3E
330
15
100
AcDbEntity
  8
0
 62
     1
100
AcDbLine
 10
389.8487002508468
 20
262.1556479627358
 30
0.0
 11
384.5494796926848
 21
262.1556479627358
 31
0.0
  0
LINE
  5
3F
330
15
100
AcDbEntity
  8
0
 62
     1
100
AcDbLine
 10
384.5494796926848
 20
262.1556479627358
 30
0.0
 11
384.5494796926848
 21
274.3242285037003
 31
0.0
  0
LINE
  5
40
330
15
100
AcDbEntity
  8
0
 62
     1
100
AcDbLine
 10
384.5494796926848
 20
274.3242285037003
 30
0.0
 11
389.8487002508468
 21
274.3242285037003
 31
0.0
  0
LINE
  5
41
330
15
100
AcDbEntity
  8
0
 62
     1
100
AcDbLine
 10
395.1479208090088
 20
274.3242285037003
 30
0.0
 11
395.1479208090088
 21
262.1556479627358
 31
0.0
  0
LINE
  5
42
330
15
100
AcDbEntity
  8
0
 62
     1
100
AcDbLine
 10
395.1479208090088
 20
262.1556479627358
 30
0.0
 11
389.8487002508468
 21
262.1556479627358
 31
0.0
  0
LINE
  5
43
330
15
100
AcDbEntity
  8
0
 62
     1
100
AcDbLine
 10
389.8487002508468
 20
274.3242285037003
 30
0.0
 11
395.1479208090088
 21
274.3242285037003
 31
0.0
  0
LINE
  5
44
330
15
100
AcDbEntity
  8
0
100
AcDbLine
 10
452.5494796926848
 20
343.5713576922535
 30
0.0
 11
452.5494796926848
 21
233.5713576922536
 31
0.0
  0
LINE
  5
45
330
15
100
AcDbEntity
  8
0
 62
     1
100
AcDbLine
 10
380.5997950479488
 20
233.5713576922535
 30
0.0
 11
380.5997950479488
 21
236.8713576922535
 31
0.0
  0
LINE
  5
46
330
15
100
AcDbEntity
  8
0
 62
     1
100
AcDbLine
 10
367.3970779376442
 20
236.8713576922535
 30
0.0
 11
367.3970779376442
 21
233.5713576922535
 31
0.0
  0
LINE
  5
47
330
15
100
AcDbEntity
  8
0
 62
     1
100
AcDbLine
 10
367.3970779376442
 20
236.8713576922535
 30
0.0
 11
380.5997950479488
 21
236.8713576922535
 31
0.0
  0
LINE
  5
48
330
15
100
AcDbEntity
  8
0
100
AcDbLine
 10
441.1978435177432
 20
363.0066618100552
 30
0.0
 11
414.1904977847021
 21
363.0066618100552
 31
0.0
  0
LINE
  5
49
330
15
100
AcDbEntity
  8
0
100
AcDbLine
 10
441.1978435177432
 20
363.0066618100552
 30
0.0
 11
441.1978435177432
 21
367.6595737275496
 31
0.0
  0
ARC
  5
4A
330
15
100
AcDbEntity
  8
0
100
AcDbCircle
 10
446.5335349096631
 20
365.6595737275496
 30
0.0
 40
2.000000000000001
100
AcDbArc
 50
0.0
 51
90.0
  0
LINE
  5
4B
330
15
100
AcDbEntity
  8
0
100
AcDbLine
 10
448.5335349096631
 20
365.6595737275496
 30
0.0
 11
448.5335349096631
 21
347.3510327822557
 31
0.0
  0
ARC
  5
4C
330
15
100
AcDbEntity
  8
0
100
AcDbCircle
 10
446.5335349096631
 20
347.3510327822557
 30
0.0
 40
2.000000000000001
100
AcDbArc
 50
270.0
 51
0.0
  0
LINE
  5
4D
330
15
100
AcDbEntity
  8
0
100
AcDbLine
 10
446.5335349096631
 20
345.3510327822557
 30
0.0
 11
441.1978435177432
 21
345.3510327822557
 31
0.0
  0
LINE
  5
4E
330
15
100
AcDbEntity
  8
0
100
AcDbLine
 10
441.1978435177432
 20
350.00394469975
 30
0.0
 11
414.1904977847021
 21
350.00394469975
 31
0.0
  0
LINE
  5
4F
330
15
100
AcDbEntity
  8
0
100
AcDbLine
 10
441.1978435177432
 20
345.3510327822557
 30
0.0
 11
441.1978435177432
 21
350.00394469975
 31
0.0
  0
CIRCLE
  5
50
330
15
100
AcDbEntity
  8
0
 62
     1
100
AcDbCircle
 10
418.3978435177432
 20
356.5053032549024
 30
0.0
 40
1.6
  0
LINE
  5
51
330
15
100
AcDbEntity
  8
0
100
AcDbLine
 10
441.1978435177432
 20
367.6595737275496
 30
0.0
 11
446.5335349096631
 21
367.6595737275496
 31
0.0
  0
LINE
  5
52
330
15
100
AcDbEntity
  8
0
100
AcDbLine
 10
414.1904977847021
 20
350.00394469975
 30
0.0
 11
414.1904977847021
 21
363.0066618100552
 31
0.0
  0
LINE
  5
53
330
15
100
AcDbEntity
  8
0
100
AcDbLine
 10
406.8548063927822
 20
363.0066618100552
 30
0.0
 11
379.847460659741
 21
363.0066618100552
 31
0.0
  0
LINE
  5
54
330
15
100
AcDbEntity
  8
0
100
AcDbLine
 10
406.8548063927822
 20
363.0066618100552
 30
0.0
 11
406.8548063927822
 21
367.6595737275495
 31
0.0
  0
ARC
  5
55
330
15
100
AcDbEntity
  8
0
100
AcDbCircle
 10
412.1904977847021
 20
365.6595737275495
 30
0.0
 40
2.000000000000001
100
AcDbArc
 50
0.0
 51
90.0
  0
LINE
  5
56
330
15
100
AcDbEntity
  8
0
100
AcDbLine
 10
414.1904977847021
 20
365.6595737275495
 30
0.0
 11
414.1904977847021
 21
347.3510327822557
 31
0.0
  0
ARC
  5
57
330
15
100
AcDbEntity
  8
0
100
AcDbCircle
 10
412.1904977847021
 20
347.3510327822557
 30
0.0
 40
2.000000000000001
100
AcDbArc
 50
270.0
 51
0.0
  0
LINE
  5
58
330
15
100
AcDbEntity
  8
0
100
AcDbLine
 10
412.1904977847021
 20
345.3510327822557
 30
0.0
 11
406.8548063927822
 21
345.3510327822557
 31
0.0
  0
LINE
  5
59
330
15
100
AcDbEntity
  8
0
100
AcDbLine
 10
406.8548063927822
 20
350.0039446997499
 30
0.0
 11
379.847460659741
 21
350.0039446997499
 31
0.0
  0
LINE
  5
5A
330
15
100
AcDbEntity
  8
0
100
AcDbLine
 10
406.8548063927822
 20
345.3510327822557
 30
0.0
 11
406.8548063927822
 21
350.0039446997499
 31
0.0
  0
CIRCLE
  5
5B
330
15
100
AcDbEntity
  8
0
 62
     1
100
AcDbCircle
 10
384.0548063927821
 20
356.5053032549024
 30
0.0
 40
1.6
  0
LINE
  5
5C
330
15
100
AcDbEntity
  8
0
100
AcDbLine
 10
406.8548063927822
 20
367.6595737275495
 30
0.0
 11
412.1904977847021
 21
367.6595737275495
 31
0.0
  0
LINE
  5
5D
330
15
100
AcDbEntity
  8
0
100
AcDbLine
 10
379.847460659741
 20
350.0039446997499
 30
0.0
 11
379.847460659741
 21
363.0066618100552
 31
0.0
  0
LINE
  5
5E
330
15
100
AcDbEntity
  8
0
100
AcDbLine
 10
372.5117692678211
 20
363.006661810055
 30
0.0
 11
345.50442353478
 21
363.006661810055
 31
0.0
  0
LINE
  5
5F
330
15
100
AcDbEntity
  8
0
100
AcDbLine
 10
372.5117692678211
 20
363.006661810055
 30
0.0
 11
372.5117692678211
 21
367.6595737275495
 31
0.0
  0
ARC
  5
60
330
15
100
AcDbEntity
  8
0
100
AcDbCircle
 10
377.847460659741
 20
365.6595737275495
 30
0.0
 40
2.000000000000001
100
AcDbArc
 50
0.0
 51
90.0
  0
LINE
  5
61
330
15
100
AcDbEntity
  8
0
100
AcDbLine
 10
379.847460659741
 20
365.6595737275495
 30
0.0
 11
379.847460659741
 21
347.3510327822557
 31
0.0
  0
ARC
  5
62
330
15
100
AcDbEntity
  8
0
100
AcDbCircle
 10
377.847460659741
 20
347.3510327822557
 30
0.0
 40
2.000000000000001
100
AcDbArc
 50
270.0
 51
0.0
  0
LINE
  5
63
330
15
100
AcDbEntity
  8
0
100
AcDbLine
 10
377.847460659741
 20
345.3510327822557
 30
0.0
 11
372.5117692678211
 21
345.3510327822557
 31
0.0
  0
LINE
  5
64
330
15
100
AcDbEntity
  8
0
100
AcDbLine
 10
372.5117692678211
 20
350.0039446997499
 30
0.0
 11
345.50442353478
 21
350.0039446997499
 31
0.0
  0
LINE
  5
65
330
15
100
AcDbEntity
  8
0
100
AcDbLine
 10
372.5117692678211
 20
345.3510327822557
 30
0.0
 11
372.5117692678211
 21
350.0039446997499
 31
0.0
  0
CIRCLE
  5
66
330
15
100
AcDbEntity
  8
0
 62
     1
100
AcDbCircle
 10
349.711769267821
 20
356.5053032549023
 30
0.0
 40
1.6
  0
LINE
  5
67
330
15
100
AcDbEntity
  8
0
100
AcDbLine
 10
372.5117692678211
 20
367.6595737275495
 30
0.0
 11
377.847460659741
 21
367.6595737275495
 31
0.0
  0
LINE
  5
68
330
15
100
AcDbEntity
  8
0
100
AcDbLine
 10
345.50442353478
 20
350.0039446997499
 30
0.0
 11
345.50442353478
 21
363.006661810055
 31
0.0
  0
LINE
  5
69
330
15
100
AcDbEntity
  8
0
100
AcDbLine
 10
338.1687321428601
 20
363.006661810055
 30
0.0
 11
311.161386409819
 21
363.006661810055
 31
0.0
  0
LINE
  5
6A
330
15
100
AcDbEntity
  8
0
100
AcDbLine
 10
338.1687321428601
 20
363.006661810055
 30
0.0
 11
338.1687321428601
 21
367.6595737275495
 31
0.0
  0
ARC
  5
6B
330
15
100
AcDbEntity
  8
0
100
AcDbCircle
 10
343.50442353478
 20
365.6595737275495
 30
0.0
 40
2.000000000000001
100
AcDbArc
 50
0.0
 51
90.0
  0
LINE
  5
6C
330
15
100
AcDbEntity
  8
0
100
AcDbLine
 10
345.50442353478
 20
365.6595737275495
 30
0.0
 11
345.50442353478
 21
347.3510327822556
 31
0.0
  0
ARC
  5
6D
330
15
100
AcDbEntity
  8
0
100
AcDbCircle
 10
343.50442353478
 20
347.3510327822556
 30
0.0
 40
2.000000000000001
100
AcDbArc
 50
270.0
 51
0.0
  0
LINE
  5
6E
330
15
100
AcDbEntity
  8
0
100
AcDbLine
 10
343.50442353478
 20
345.3510327822556
 30
0.0
 11
338.1687321428601
 21
345.3510327822556
 31
0.0
  0
LINE
  5
6F
330
15
100
AcDbEntity
  8
0
100
AcDbLine
 10
338.1687321428601
 20
350.0039446997499
 30
0.0
 11
311.161386409819
 21
350.0039446997499
 31
0.0
  0
LINE
  5
70
330
15
100
AcDbEntity
  8
0
100
AcDbLine
 10
338.1687321428601
 20
345.3510327822556
 30
0.0
 11
338.1687321428601
 21
350.0039446997499
 31
0.0
  0
CIRCLE
  5
71
330
15
100
AcDbEntity
  8
0
 62
     1
100
AcDbCircle
 10
315.3687321428599
 20
356.5053032549023
 30
0.0
 40
1.6
  0
LINE
  5
72
330
15
100
AcDbEntity
  8
0
100
AcDbLine
 10
338.1687321428601
 20
367.6595737275495
 30
0.0
 11
343.50442353478
 21
367.6595737275495
 31
0.0
  0
LINE
  5
73
330
15
100
AcDbEntity
  8
0
100
AcDbLine
 10
311.161386409819
 20
350.0039446997499
 30
0.0
 11
311.161386409819
 21
363.006661810055
 31
0.0
  0
LINE
  5
74
330
15
100
AcDbEntity
  8
0
100
AcDbLine
 10
306.8305513462841
 20
253.5713576922537
 30
0.0
 11
306.8305513462841
 21
323.5713576922535
 31
0.0
  0
CIRCLE
  5
75
330
15
100
AcDbEntity
  8
0
 62
     1
100
AcDbCircle
 10
314.8667953832791
 20
296.0713576922536
 30
0.0
 40
1.15
  0
CIRCLE
  5
76
330
15
100
AcDbEntity
  8
0
 62
     1
100
AcDbCircle
 10
314.8667953832791
 20
281.0713576922536
 30
0.0
 40
1.15
  0
CIRCLE
  5
77
330
15
100
AcDbEntity
  8
0
 62
     1
100
AcDbCircle
 10
449.0494796926848
 20
325.8713576922536
 30
0.0
 40
1.5
  0
CIRCLE
  5
78
330
15
100
AcDbEntity
  8
0
 62
     1
100
AcDbCircle
 10
420.2994796926848
 20
325.8713576922536
 30
0.0
 40
1.5
  0
CIRCLE
  5
79
330
15
100
AcDbEntity
  8
0
 62
     1
100
AcDbCircle
 10
449.0494796926848
 20
251.2713576922536
 30
0.0
 40
1.5
  0
CIRCLE
  5
7A
330
15
100
AcDbEntity
  8
0
 62
     1
100
AcDbCircle
 10
420.2994796926848
 20
251.2713576922536
 30
0.0
 40
1.5
  0
LINE
  5
7B
330
15
100
AcDbEntity
  8
0
100
AcDbLine
 10
474.2340667850017
 20
319.5713576922536
 30
0.0
 11
458.2340667850017
 21
319.5713576922536
 31
0.0
  0
ARC
  5
7C
330
15
100
AcDbEntity
  8
0
100
AcDbCircle
 10
458.2340667850017
 20
317.5713576922536
 30
0.0
 40
2.0
100
AcDbArc
 50
90.0
 51
180.0
  0
LINE
  5
7D
330
15
100
AcDbEntity
  8
0
100
AcDbLine
 10
456.2340667850017
 20
317.5713576922536
 30
0.0
 11
456.2340667850017
 21
288.5713576922536
 31
0.0
  0
LINE
  5
7E
330
15
100
AcDbEntity
  8
0
100
AcDbLine
 10
456.2340667850017
 20
288.5713576922536
 30
0.0
 11
456.2340667850017
 21
259.5713576922536
 31
0.0
  0
ARC
  5
7F
330
15
100
AcDbEntity
  8
0
100
AcDbCircle
 10
458.2340667850017
 20
259.5713576922536
 30
0.0
 40
2.0
100
AcDbArc
 50
180.0
 51
270.0
  0
LINE
  5
80
330
15
100
AcDbEntity
  8
0
100
AcDbLine
 10
458.2340667850017
 20
257.5713576922536
 30
0.0
 11
474.2340667850017
 21
257.5713576922536
 31
0.0
  0
INSERT
  5
81
330
15
100
AcDbEntity
  8
0
 62
     5
100
AcDbBlockReference
  2
kitronik logo stritched
 10
4392.713436856819
 20
-406.5216458020876
 30
0.0
 41
2.47753297640505
 42
2.47753297640505
 43
2.47753297640505
 50
90.0
  0
LWPOLYLINE
  5
96
330
15
100
AcDbEntity
  8
0
 62
     5
100
AcDbPolyline
 90
        8
 70
     1
 43
0.0
 10
505.1075966853107
 20
302.5863763650368
 10
505.1075966853107
 20
295.5175032141153
 10
487.4354138080071
 20
295.5175032141153
 10
487.4354138080071
 20
288.4486300631938
 10
487.4354138080071
 20
281.3797569122724
 10
505.1075966853107
 20
281.3797569122724
 10
505.1075966853107
 20
274.3108837613509
 10
517.977524174047
 20
288.4486300631938
  0
LINE
  5
97
330
15
100
AcDbEntity
  8
0
100
AcDbLine
 10
526.8010041037032
 20
245.5713576922536
 30
0.0
 11
526.8010041037032
 21
331.5713576922536
 31
0.0
  0
ARC
  5
98
330
15
100
AcDbEntity
  8
0
100
AcDbCircle
 10
524.8010041037032
 20
245.5713576922536
 30
0.0
 40
2.0
100
AcDbArc
 50
270.0
 51
0.0
  0
ARC
  5
99
330
15
100
AcDbEntity
  8
0
100
AcDbCircle
 10
524.8010041037032
 20
331.5713576922536
 30
0.0
 40
2.0
100
AcDbArc
 50
0.0
 51
90.0
  0
LINE
  5
9A
330
15
100
AcDbEntity
  8
0
100
AcDbLine
 10
474.2340667850017
 20
257.5713576922536
 30
0.0
 11
476.2340667850017
 21
257.5713576922536
 31
0.0
  0
LINE
  5
9B
330
15
100
AcDbEntity
  8
0
100
AcDbLine
 10
474.2340667850017
 20
319.5713576922536
 30
0.0
 11
476.2340667850017
 21
319.5713576922536
 31
0.0
  0
LINE
  5
9C
330
15
100
AcDbEntity
  8
0
100
AcDbLine
 10
524.8010041037032
 20
243.5713576922536
 30
0.0
 11
480.2340667850017
 21
243.5713576922536
 31
0.0
  0
ARC
  5
9D
330
15
100
AcDbEntity
  8
0
100
AcDbCircle
 10
480.2340667850017
 20
245.5713576922536
 30
0.0
 40
2.0
100
AcDbArc
 50
180.0
 51
270.0
  0
LINE
  5
9E
330
15
100
AcDbEntity
  8
0
100
AcDbLine
 10
478.2340667850017
 20
245.5713576922536
 30
0.0
 11
478.2340667850017
 21
255.5713576922536
 31
0.0
  0
ARC
  5
9F
330
15
100
AcDbEntity
  8
0
100
AcDbCircle
 10
476.2340667850017
 20
255.5713576922536
 30
0.0
 40
2.0
100
AcDbArc
 50
0.0
 51
90.0
  0
LINE
  5
A0
330
15
100
AcDbEntity
  8
0
100
AcDbLine
 10
524.8010041037032
 20
333.5713576922536
 30
0.0
 11
480.2340667850017
 21
333.5713576922536
 31
0.0
  0
ARC
  5
A1
330
15
100
AcDbEntity
  8
0
100
AcDbCircle
 10
480.2340667850017
 20
331.5713576922536
 30
0.0
 40
2.0
100
AcDbArc
 50
90.0
 51
180.0
  0
LINE
  5
A2
330
15
100
AcDbEntity
  8
0
100
AcDbLine
 10
478.2340667850017
 20
331.5713576922536
 30
0.0
 11
478.2340667850017
 21
321.5713576922536
 31
0.0
  0
ARC
  5
A3
330
15
100
AcDbEntity
  8
0
100
AcDbCircle
 10
476.2340667850017
 20
321.5713576922536
 30
0.0
 40
2.0
100
AcDbArc
 50
270.0
 51
0.0
  0
CIRCLE
  5
A4
330
15
100
AcDbEntity
  8
0
 62
     1
100
AcDbCircle
 10
520.5340667850019
 20
325.8713576922536
 30
0.0
 40
1.5
  0
CIRCLE
  5
A5
330
15
100
AcDbEntity
  8
0
 62
     1
100
AcDbCircle
 10
491.7840667850019
 20
325.8713576922536
 30
0.0
 40
1.5
  0
CIRCLE
  5
A6
330
15
100
AcDbEntity
  8
0
 62
     1
100
AcDbCircle
 10
520.5340667850019
 20
251.2713576922536
 30
0.0
 40
1.5
  0
CIRCLE
  5
A7
330
15
100
AcDbEntity
  8
0
 62
     1
100
AcDbCircle
 10
491.7840667850019
 20
251.2713576922536
 30
0.0
 40
1.5
  0
TEXT
  5
A8
330
15
100
AcDbEntity
  8
0
 62
     5
100
AcDbText
 10
431.185945976913
 20
283.5039060027365
 30
0.0
 40
5.444664823089227
  1
TOP
 50
90.0
100
AcDbText
  0
ENDSEC
  0
SECTION
  2
OBJECTS
  0
DICTIONARY
  5
5
330
0
100
AcDbDictionary
281
     1
  3
ACAD_COLOR
350
23
  3
ACAD_GROUP
350
21
  3
ACAD_LAYOUT
350
19
  3
ACAD_MATERIAL
350
7
  3
ACAD_MLEADERSTYLE
350
AC
  3
ACAD_MLINESTYLE
350
13
  3
ACAD_PLOTSETTINGS
350
22
  3
ACAD_PLOTSTYLENAME
350
4
  3
ACAD_SCALELIST
350
26
  3
ACAD_TABLESTYLE
350
AB
  3
AcDbVariableDictionary
350
A9
  0
DICTIONARY
  5
83
330
82
100
AcDbDictionary
280
     1
281
     1
  3
ACAD_SORTENTS
360
84
  0
DICTIONARY
  5
23
102
{ACAD_REACTORS
330
5
102
}
330
5
100
AcDbDictionary
281
     1
  0
DICTIONARY
  5
21
102
{ACAD_REACTORS
330
5
102
}
330
5
100
AcDbDictionary
281
     1
  0
DICTIONARY
  5
19
102
{ACAD_REACTORS
330
5
102
}
330
5
100
AcDbDictionary
281
     1
  3
Model
350
18
  3
Sheet1
350
1D
  0
DICTIONARY
  5
7
102
{ACAD_REACTORS
330
5
102
}
330
5
100
AcDbDictionary
281
     1
  3
ByBlock
350
29
  3
ByLayer
350
28
  3
Global
350
6
  0
DICTIONARY
  5
AC
102
{ACAD_REACTORS
330
5
102
}
330
5
100
AcDbDictionary
281
     1
  0
DICTIONARY
  5
13
102
{ACAD_REACTORS
330
5
102
}
330
5
100
AcDbDictionary
281
     1
  3
Standard
350
12
  0
DICTIONARY
  5
22
102
{ACAD_REACTORS
330
5
102
}
330
5
100
AcDbDictionary
281
     1
  0
ACDBDICTIONARYWDFLT
  5
4
102
{ACAD_REACTORS
330
5
102
}
330
5
100
AcDbDictionary
281
     1
  3
Normal
350
3
100
AcDbDictionaryWithDefault
340
3
  0
DICTIONARY
  5
26
102
{ACAD_REACTORS
330
5
102
}
330
5
100
AcDbDictionary
281
     1
  3
*A2
350
27
  0
DICTIONARY
  5
AB
102
{ACAD_REACTORS
330
5
102
}
330
5
100
AcDbDictionary
281
     1
  0
DICTIONARY
  5
A9
102
{ACAD_REACTORS
330
5
102
}
330
5
100
AcDbDictionary
281
     1
  3
CANNOSCALE
350
AA
  3
XCLIPFRAME
350
AD
  0
SORTENTSTABLE
  5
84
102
{ACAD_REACTORS
330
83
102
}
330
83
100
AcDbSortentsTable
330
82
  0
LAYOUT
  5
18
102
{ACAD_REACTORS
330
19
330
19
330
19
330
19
330
19
330
19
330
19
102
}
330
19
100
AcDbPlotSettings
  1

  2
none_device
  4
ANSI_A_(8.50_x_11.00_Inches)
  6

 40
6.35
 41
19.05
 42
6.35
 43
19.05
 44
215.9
 45
279.4
 46
11.11250000000003
 47
0.0000000000000142
 48
0.0
 49
0.0
140
0.0
141
0.0
142
1.0
143
1.263157894736842
 70
 11444
 72
     0
 73
     1
 74
     1
  7
monochrome.ctb
 75
     0
 76
     0
 77
     2
 78
   300
147
0.7916666666666665
148
-702.8076765758875
149
-496.2830551296954
100
AcDbLayout
  1
Model
 70
     1
 71
     0
 10
0.0
 20
0.0
 11
12.0
 21
9.0
 12
0.0
 22
0.0
 32
0.0
 14
15.39269465348264
 24
13.57135769225341
 34
0.0
 15
598.2684080390856
 25
403.0258283356411
 35
0.0
146
0.0
 13
0.0
 23
0.0
 33
0.0
 16
1.0
 26
0.0
 36
0.0
 17
0.0
 27
1.0
 37
0.0
 76
     0
330
15
331
25
  0
LAYOUT
  5
1D
102
{ACAD_REACTORS
330
19
330
19
330
19
330
19
330
19
330
19
330
19
102
}
330
19
100
AcDbPlotSettings
  1

  2
None
  4
ANSI_A_(11.00_x_8.50_Inches)
  6

 40
6.35
 41
19.05
 42
6.35
 43
19.05
 44
279.4
 45
215.9
 46
0.0
 47
0.0
 48
0.0
 49
0.0
140
0.0
141
0.0
142
1.0
143
1.0
 70
   688
 72
     0
 73
     0
 74
     5
  7

 75
    16
 76
     0
 77
     2
 78
   300
147
1.0
148
0.0
149
0.0
100
AcDbLayout
  1
Sheet1
 70
     1
 71
     1
 10
-0.25
 20
-0.7499999999999999
 11
10.75
 21
7.75
 12
0.0
 22
0.0
 32
0.0
 14
1.05
 24
0.6999999999999997
 34
0.0
 15
9.45
 25
6.300000000000001
 35
0.0
146
0.0
 13
0.0
 23
0.0
 33
0.0
 16
1.0
 26
0.0
 36
0.0
 17
0.0
 27
1.0
 37
0.0
 76
     0
330
1A
  0
MATERIAL
  5
29
102
{ACAD_REACTORS
330
7
102
}
330
7
100
AcDbMaterial
  1
ByBlock
  0
MATERIAL
  5
28
102
{ACAD_REACTORS
330
7
102
}
330
7
100
AcDbMaterial
  1
ByLayer
  0
MATERIAL
  5
6
102
{ACAD_REACTORS
330
7
102
}
330
7
100
AcDbMaterial
  1
Global
  0
MLINESTYLE
  5
12
102
{ACAD_REACTORS
330
13
102
}
330
13
100
AcDbMlineStyle
  2
STANDARD
 70
     0
  3

 62
   256
 51
90.0
 52
90.0
 71
     2
 49
0.5
 62
   256
  6
BYLAYER
 49
-0.5
 62
   256
  6
BYLAYER
  0
ACDBPLACEHOLDER
  5
3
102
{ACAD_REACTORS
330
4
102
}
330
4
  0
SCALE
  5
27
102
{ACAD_REACTORS
330
26
102
}
330
26
100
AcDbScale
 70
     0
300
1:1
140
1.0
141
1.0
290
     1
  0
DICTIONARYVAR
  5
AA
102
{ACAD_REACTORS
330
A9
102
}
330
A9
100
DictionaryVariables
280
     0
  1
1:1
  0
DICTIONARYVAR
  5
AD
102
{ACAD_REACTORS
330
A9
102
}
330
A9
100
DictionaryVariables
280
     0
  1
0
  0
ENDSEC
  0
EOF
